<svg width="27.000000" height="27.000000" viewBox="0 0 27 27" fill="none" xmlns="http://www.w3.org/2000/svg" xmlns:xlink="http://www.w3.org/1999/xlink">
	<desc>
			Created with Pixso.
	</desc>
	<defs/>
	<path id="Vector" d="M26.09 0.76C25.86 0.22 25.43 -0.22 24.88 -0.45C24.61 -0.56 24.32 -0.62 24.03 -0.63L1.63 -0.63C1.03 -0.63 0.46 -0.39 0.04 0.03C-0.38 0.45 -0.61 1.02 -0.61 1.61C-0.61 2.21 -0.38 2.78 0.04 3.2C0.46 3.62 1.03 3.85 1.63 3.85L18.63 3.85L0.04 22.43C-0.17 22.63 -0.34 22.88 -0.45 23.16C-0.57 23.43 -0.63 23.72 -0.63 24.02C-0.63 24.31 -0.57 24.61 -0.45 24.88C-0.34 25.15 -0.17 25.4 0.04 25.61C0.25 25.82 0.49 25.98 0.77 26.1C1.04 26.21 1.33 26.27 1.63 26.27C1.92 26.27 2.22 26.21 2.49 26.1C2.76 25.98 3.01 25.82 3.22 25.61L21.79 7.01L21.79 24.02C21.79 24.61 22.03 25.18 22.45 25.6C22.87 26.02 23.44 26.26 24.03 26.26C24.62 26.26 25.19 26.02 25.61 25.6C26.03 25.18 26.27 24.61 26.27 24.02L26.27 1.61C26.27 1.32 26.21 1.03 26.09 0.76Z" fill="#F1F1F1" fill-opacity="1.000000" fill-rule="nonzero"/>
</svg>
