<svg width="24.000000" height="24.000000" viewBox="0 0 24 24" fill="none" xmlns="http://www.w3.org/2000/svg" xmlns:xlink="http://www.w3.org/1999/xlink">
	<desc>
			Created with Pixso.
	</desc>
	<defs/>
	<path id="Vector" d="M11.29 15.59L6.61 20.28C6.04 20.83 5.28 21.13 4.49 21.13C3.7 21.13 2.94 20.83 2.38 20.28C2.1 20 1.88 19.67 1.73 19.31C1.58 18.95 1.5 18.56 1.5 18.16C1.5 17.77 1.58 17.38 1.73 17.02C1.88 16.66 2.1 16.33 2.38 16.05L7.07 11.36C7.29 11.13 7.42 10.83 7.42 10.5C7.42 10.18 7.29 9.87 7.07 9.65C6.84 9.42 6.53 9.29 6.21 9.29C5.89 9.29 5.58 9.42 5.35 9.65L0.66 14.35C-0.28 15.37 -0.79 16.73 -0.76 18.12C-0.73 19.52 -0.17 20.85 0.82 21.84C1.81 22.82 3.14 23.39 4.53 23.42C5.93 23.45 7.28 22.94 8.31 22L13.01 17.31C13.24 17.08 13.37 16.77 13.37 16.45C13.37 16.13 13.24 15.82 13.01 15.59C12.78 15.36 12.47 15.24 12.15 15.24C11.83 15.24 11.52 15.36 11.29 15.59ZM21.66 1C20.65 -0.01 19.27 -0.58 17.84 -0.58C16.4 -0.58 15.03 -0.01 14.01 1L9.31 5.68C9.2 5.8 9.11 5.93 9.05 6.08C8.99 6.22 8.96 6.38 8.96 6.54C8.96 6.7 8.99 6.86 9.05 7.01C9.11 7.15 9.2 7.29 9.31 7.4C9.43 7.51 9.56 7.6 9.71 7.66C9.85 7.72 10.01 7.75 10.17 7.75C10.33 7.75 10.49 7.72 10.64 7.66C10.78 7.6 10.92 7.51 11.03 7.4L15.72 2.71C16.28 2.16 17.04 1.86 17.83 1.86C18.62 1.86 19.38 2.16 19.95 2.71C20.22 2.99 20.45 3.32 20.6 3.68C20.75 4.04 20.82 4.43 20.82 4.83C20.82 5.22 20.75 5.61 20.6 5.97C20.45 6.33 20.22 6.66 19.95 6.94L15.26 11.63C15.14 11.74 15.05 11.87 14.99 12.02C14.93 12.17 14.9 12.33 14.9 12.49C14.9 12.65 14.93 12.8 14.99 12.95C15.05 13.1 15.14 13.23 15.26 13.34C15.37 13.46 15.5 13.55 15.65 13.61C15.8 13.67 15.96 13.7 16.12 13.7C16.28 13.7 16.43 13.67 16.58 13.61C16.73 13.55 16.86 13.46 16.97 13.34L21.66 8.64C22.67 7.63 23.24 6.25 23.24 4.82C23.24 3.39 22.67 2.01 21.66 1ZM7.33 15.33C7.44 15.44 7.58 15.53 7.73 15.59C7.87 15.65 8.03 15.68 8.19 15.68C8.35 15.68 8.51 15.65 8.65 15.59C8.8 15.53 8.93 15.44 9.05 15.33L14.99 9.38C15.22 9.15 15.35 8.84 15.35 8.52C15.35 8.2 15.22 7.89 14.99 7.66C14.76 7.44 14.46 7.31 14.13 7.31C13.81 7.31 13.5 7.44 13.28 7.66L7.33 13.61C7.22 13.72 7.13 13.86 7.07 14C7.01 14.15 6.97 14.31 6.97 14.47C6.97 14.63 7.01 14.79 7.07 14.93C7.13 15.08 7.22 15.21 7.33 15.33Z" fill="#F1F1F1" fill-opacity="1.000000" fill-rule="nonzero"/>
</svg>
