<svg width="98" height="98" viewBox="0 0 98 98" fill="none" xmlns="http://www.w3.org/2000/svg">
<circle cx="49" cy="49" r="49" fill="url(#paint0_linear_28_1236)" fill-opacity="0.5"/>
<g clip-path="url(#clip0_28_1236)">
<path d="M36.56 28.9436C39.4679 27.4835 42.8772 25.6616 46.2114 26.0363C49.5455 26.411 51.739 29.0728 52.6414 32.1609C53.6442 35.5721 53.0551 39.0479 51.8017 42.3041C51.1123 44.0743 50.2223 45.754 49.2948 47.408C48.831 48.222 48.3923 49.0748 47.8534 49.8501C47.7782 49.9793 47.6904 50.0956 47.5901 50.1989C47.164 50.6641 47.54 50.6253 48.7182 50.0697C48.6932 50.1343 48.4174 49.2815 48.4174 49.2298L46.8506 51.0388C50.1973 49.3591 54.2584 50.6253 56.8028 53.2742C59.6606 56.2331 60.3751 60.8072 59.1091 64.6965C57.8432 68.5858 54.3962 71.1054 50.4229 70.9375C48.0664 70.8341 45.7852 69.9167 43.7797 68.6633C42.7519 68.0173 38.6532 65.3426 39.8314 63.6758C40.5459 62.6679 39.2172 62.164 38.4527 62.1381C37.2368 62.0864 35.8831 62.6033 35.0935 63.5724C31.8346 67.578 40.3829 72.0229 43.0653 72.9661C47.9536 74.6975 53.3308 74.2195 57.8808 71.6998C61.9669 69.4386 64.7997 65.2909 64.9752 60.4584C65.1381 55.9489 63.1828 51.8528 59.4852 49.3978C55.1984 46.5552 49.3073 46.5681 44.795 48.8293C44.0555 49.204 43.1906 49.6821 43.2282 50.6383C43.3285 53.1191 46.6626 53.3776 48.4049 52.9382C51.0747 52.2663 52.4785 50.3023 53.7946 47.9765C56.3641 43.4282 58.8083 38.4148 58.1816 32.9879C57.6301 28.22 54.5968 24.2532 49.9215 23.2711C44.6571 22.1858 39.2172 24.447 34.5545 26.7857C33.8651 27.1346 32.4989 27.9357 33.2008 28.8919C33.84 29.7576 35.8205 29.3183 36.56 28.9436Z" fill="#F1F1F1"/>
</g>
<defs>
<linearGradient id="paint0_linear_28_1236" x1="-13.2541" y1="23.2951" x2="124.071" y2="34.2555" gradientUnits="userSpaceOnUse">
<stop stop-color="#60C1FE"/>
<stop offset="1" stop-color="#9200FE"/>
</linearGradient>
<clipPath id="clip0_28_1236">
<rect width="32" height="51" fill="white" transform="translate(33 23)"/>
</clipPath>
</defs>
</svg>
