<svg width="98" height="98" viewBox="0 0 98 98" fill="none" xmlns="http://www.w3.org/2000/svg">
<circle cx="49" cy="49" r="49" fill="url(#paint0_linear_28_1226)" fill-opacity="0.5"/>
<path d="M41.8128 60.5462C45.6691 47.7819 49.4864 35.0043 53.3946 22.2531L48.0062 22.9388C47.7985 32.1692 47.6816 41.4129 47.5258 50.6433C47.37 59.8737 47.0584 68.9327 47.1233 78.0841C47.1233 79.7455 52.3948 78.7038 52.4597 77.016C52.8233 67.891 52.8103 58.7529 52.9661 49.6279C53.1219 40.503 53.3037 31.3781 53.4076 22.2531C53.4336 19.9059 48.5126 21.2773 48.0192 22.9388C44.2408 35.7164 40.3716 48.4544 36.5412 61.2187C35.9829 63.078 41.2675 62.3528 41.8128 60.5462Z" fill="#F1F1F1"/>
<defs>
<linearGradient id="paint0_linear_28_1226" x1="-13.2541" y1="23.2951" x2="124.071" y2="34.2555" gradientUnits="userSpaceOnUse">
<stop stop-color="#60C1FE"/>
<stop offset="1" stop-color="#9200FE"/>
</linearGradient>
</defs>
</svg>
