<svg width="98" height="98" viewBox="0 0 98 98" fill="none" xmlns="http://www.w3.org/2000/svg">
<circle cx="49" cy="49" r="49" fill="url(#paint0_linear_28_1244)" fill-opacity="0.5"/>
<g clip-path="url(#clip0_28_1244)">
<path d="M39.1805 24.5495C36.0765 34.7148 33.1158 44.9173 30.2983 55.1694C29.773 57.0785 29.7372 58.7644 31.7787 59.5082C33.6411 60.1776 35.8855 59.8305 37.7957 59.5826C42.2964 58.9876 46.6301 57.5495 50.9518 56.1611C53.2917 55.4049 55.6436 54.6735 58.0313 54.1033C60.419 53.533 62.8663 53.409 65.3376 53.2231C66.1613 53.1611 67.6178 52.6404 67.9402 51.7355C68.2625 50.8305 67.3074 50.5454 66.5792 50.471C61.4099 49.9504 55.9062 51.8099 51.0354 53.3842C46.1645 54.9586 41.3175 56.8305 36.2556 57.0289C35.1573 57.0661 34.5962 56.9173 34.7394 55.6033C34.9066 54.0909 35.5751 52.4793 35.9691 51.0165C36.7809 48.0661 37.5927 45.1157 38.4284 42.1776C40.1475 36.0909 41.9263 30.0289 43.7291 23.9669C44.2185 22.3181 39.67 22.9752 39.1805 24.5619V24.5495Z" fill="#F1F1F1"/>
<path d="M51.0595 48.2526C49.5672 56.3229 48.3853 64.6287 48.3375 72.8601C48.3375 74.9055 53.0054 73.9014 53.1487 72.2278C53.877 63.9592 54.6052 55.7526 56.1094 47.5956C56.4795 45.6121 51.3818 46.4551 51.0595 48.2526Z" fill="#F1F1F1"/>
</g>
<defs>
<linearGradient id="paint0_linear_28_1244" x1="-13.2541" y1="23.2951" x2="124.071" y2="34.2555" gradientUnits="userSpaceOnUse">
<stop stop-color="#60C1FE"/>
<stop offset="1" stop-color="#9200FE"/>
</linearGradient>
<clipPath id="clip0_28_1244">
<rect width="38" height="51" fill="white" transform="translate(30 23)"/>
</clipPath>
</defs>
</svg>
