<svg width="98" height="98" viewBox="0 0 98 98" fill="none" xmlns="http://www.w3.org/2000/svg">
<circle cx="49" cy="49" r="49" fill="url(#paint0_linear_28_1228)" fill-opacity="0.5"/>
<g clip-path="url(#clip0_28_1228)">
<path d="M27.3042 33.3229C30.0343 30.1682 33.5229 26.2698 37.9467 25.9236C41.8018 25.6286 44.8858 28.3601 46.1624 31.861C48.8799 39.3244 45.7453 48.2112 42.0799 54.7642C40.0322 58.4189 37.517 61.8044 34.5467 64.7282C33.0552 66.2029 31.4753 67.5879 29.7942 68.8062C28.5176 69.7295 26.7228 71.653 25.3072 70.1655C24.119 68.9344 23.9674 66.8185 24.8268 65.3694C25.8886 63.5741 27.7466 63.2535 29.6678 63.3433C32.1957 63.4587 34.7363 64.0486 37.2263 64.4589C39.7163 64.8693 42.459 65.3181 45.0754 65.7541C55.6927 67.4981 67.2579 70.1142 77.458 65.2283C78.1532 64.8949 79.5309 64.0742 78.8231 63.1381C78.1658 62.2661 76.194 62.7405 75.4357 63.0868C70.3925 65.3438 64.8058 65.2283 59.434 64.5743C53.3796 63.8306 47.3758 62.6892 41.3594 61.7018C35.343 60.7144 28.8462 58.9832 23.2469 62.2148C21.313 63.3304 19.3918 65.2283 19.0758 67.5751C18.8104 69.5628 19.5309 71.6787 21.174 72.8456C25.838 76.167 32.1072 71.2812 35.6716 68.3702C39.5899 65.1642 43.0025 61.2658 45.72 56.9699C50.384 49.5577 54.8205 38.5934 51.1171 29.8605C48.8799 24.6925 43.7862 22.4612 38.3891 23.1024C31.7533 23.8974 26.8239 28.3216 22.6149 33.2203C21.806 34.1564 23.2975 34.695 23.98 34.7207C25.206 34.772 26.4953 34.259 27.3042 33.3229Z" fill="#F1F1F1"/>
</g>
<defs>
<linearGradient id="paint0_linear_28_1228" x1="-13.2541" y1="23.2951" x2="124.071" y2="34.2555" gradientUnits="userSpaceOnUse">
<stop stop-color="#60C1FE"/>
<stop offset="1" stop-color="#9200FE"/>
</linearGradient>
<clipPath id="clip0_28_1228">
<rect width="60" height="51" fill="white" transform="translate(19 23)"/>
</clipPath>
</defs>
</svg>
