<svg width="19.000000" height="19.000000" viewBox="0 0 19 19" fill="none" xmlns="http://www.w3.org/2000/svg" xmlns:xlink="http://www.w3.org/1999/xlink">
	<desc>
			Created with Pixso.
	</desc>
	<defs/>
	<path id="Vector" d="M13.86 11.46L12.27 12.35C12.08 12.46 11.86 12.5 11.65 12.47C11.43 12.44 11.23 12.34 11.08 12.18L5.78 6.89C5.63 6.74 5.53 6.54 5.5 6.32C5.47 6.1 5.51 5.88 5.62 5.69L6.51 4.11C6.67 3.82 6.73 3.49 6.69 3.16C6.65 2.84 6.5 2.54 6.26 2.31L3.89 -0.07C3.75 -0.21 3.58 -0.32 3.4 -0.4C3.22 -0.47 3.02 -0.51 2.83 -0.51C2.63 -0.51 2.43 -0.47 2.25 -0.4C2.07 -0.32 1.9 -0.21 1.76 -0.07L0.68 1.01C0.05 1.64 -0.35 2.46 -0.46 3.35C-0.57 4.24 -0.38 5.13 0.08 5.9L0.62 6.8C3.39 11.41 7.29 15.23 11.96 17.9L12.07 17.96C13.66 18.87 15.63 18.61 16.91 17.33L18.04 16.2C18.18 16.07 18.29 15.9 18.36 15.72C18.44 15.54 18.48 15.34 18.48 15.14C18.48 14.95 18.44 14.75 18.36 14.57C18.29 14.39 18.18 14.22 18.04 14.08L15.66 11.7C15.43 11.47 15.13 11.32 14.8 11.28C14.48 11.23 14.15 11.29 13.86 11.46Z" fill="#F1F1F1" fill-opacity="1.000000" fill-rule="nonzero"/>
</svg>
