<svg width="98" height="98" viewBox="0 0 98 98" fill="none" xmlns="http://www.w3.org/2000/svg">
<path d="M10.4585 75.0304C10.1562 75.0315 9.85825 74.958 9.59115 74.8164C9.32404 74.6749 9.09599 74.4696 8.92721 74.2188C4.1097 66.6319 1.54497 57.8332 1.53127 48.846C1.5076 41.8078 3.07812 34.8556 6.12502 28.511C6.33858 28.1022 6.69805 27.7887 7.13206 27.6327C7.56608 27.4767 8.04289 27.4896 8.46783 27.6688C8.68178 27.734 8.87886 27.8452 9.04522 27.9947C9.21157 28.1442 9.34316 28.3283 9.43073 28.5341C9.51831 28.7399 9.55974 28.9623 9.55211 29.1859C9.54448 29.4094 9.48798 29.6285 9.38658 29.8279C6.54561 35.7642 5.08009 42.2649 5.09908 48.846C5.11702 57.236 7.51145 65.4492 12.005 72.5344C12.1294 72.7195 12.2119 72.9294 12.2467 73.1496C12.2815 73.3698 12.2678 73.595 12.2065 73.8094C12.1453 74.0237 12.038 74.2221 11.8921 74.3907C11.7462 74.5593 11.5652 74.694 11.3619 74.7854C11.0829 74.9335 10.7741 75.0173 10.4585 75.0304ZM88.3072 75.0304C87.9939 75.0268 87.6853 74.9536 87.4038 74.816C87.2004 74.7246 87.0195 74.5899 86.8736 74.4213C86.7277 74.2528 86.6204 74.0543 86.5591 73.84C86.4979 73.6256 86.4842 73.4005 86.519 73.1802C86.5538 72.96 86.6363 72.7501 86.7606 72.5651C91.2598 65.4711 93.6544 57.2464 93.6666 48.846C93.6712 42.2613 92.19 35.7605 89.3331 29.8279C89.2317 29.6285 89.1752 29.4094 89.1676 29.1859C89.16 28.9623 89.2014 28.7399 89.289 28.5341C89.3766 28.3283 89.5082 28.1442 89.6745 27.9947C89.8409 27.8452 90.0379 27.734 90.2519 27.6688C90.6768 27.4896 91.1536 27.4767 91.5877 27.6327C92.0217 27.7887 92.3811 28.1022 92.5947 28.511C95.6416 34.8556 97.2121 41.8078 97.1885 48.846C97.1735 57.8213 94.6144 66.6084 89.8078 74.1882C89.6454 74.4404 89.4238 74.649 89.1622 74.7958C88.9006 74.9426 88.6071 75.0231 88.3072 75.0304ZM81.1563 16.4447C80.761 16.4554 80.3769 16.3128 80.0844 16.0466C71.4378 8.65532 60.4364 4.594 49.0613 4.594C37.6861 4.594 26.6847 8.65532 18.0381 16.0466C17.7205 16.3201 17.31 16.4614 16.8913 16.4415C16.4726 16.4215 16.0775 16.2419 15.7872 15.9394C15.508 15.6465 15.3562 15.255 15.3648 14.8504C15.3734 14.4459 15.5418 14.0612 15.8331 13.7804C25.0752 5.87405 36.8376 1.5293 49 1.5293C61.1625 1.5293 72.9249 5.87405 82.1669 13.7804C82.4668 14.0528 82.6464 14.4331 82.6665 14.8378C82.6866 15.2424 82.5455 15.6386 82.2741 15.9394C81.9819 16.2476 81.5806 16.429 81.1563 16.4447ZM49 96.4679C38.2584 96.5215 27.7711 93.2007 19.0181 86.9741C18.8561 86.8546 18.7192 86.7043 18.6153 86.5318C18.5115 86.3593 18.4426 86.1681 18.4127 85.9689C18.3829 85.7698 18.3926 85.5668 18.4413 85.3714C18.49 85.176 18.5767 84.9922 18.6966 84.8304C18.9638 84.5046 19.3444 84.292 19.7619 84.2352C20.1794 84.1784 20.603 84.2816 20.9475 84.5241C29.16 90.3042 38.9574 93.4064 49 93.4064C59.0426 93.4064 68.8401 90.3042 77.0525 84.5241C77.3971 84.2816 77.8206 84.1784 78.2381 84.2352C78.6556 84.292 79.0362 84.5046 79.3035 84.8304C79.4233 84.9922 79.5101 85.176 79.5588 85.3714C79.6075 85.5668 79.6172 85.7698 79.5873 85.9689C79.5574 86.1681 79.4886 86.3593 79.3847 86.5318C79.2808 86.7043 79.1439 86.8546 78.9819 86.9741C70.2289 93.2007 59.7416 96.5215 49 96.4679ZM68.9063 37.5148C66.3814 33.1286 62.4787 29.6992 57.8043 27.7592C53.13 25.8193 47.9458 25.4775 43.0572 26.7869C38.1686 28.0964 33.8493 30.9837 30.7705 35.0004C27.6917 39.0171 26.0256 43.9382 26.0313 48.9991C26.0297 51.8061 26.5489 54.589 27.5625 57.2066C29.2293 61.5397 32.1699 65.266 35.9969 67.8942C39.8239 70.5225 44.3575 71.9293 49 71.9293C53.6426 71.9293 58.1762 70.5225 62.0031 67.8942C65.8301 65.266 68.7708 61.5397 70.4375 57.2066C71.4511 54.589 71.9704 51.8061 71.9688 48.9991C71.9733 44.9686 70.9171 41.0079 68.9063 37.5148ZM64.68 36.7491H56.8553C56.7175 36.1366 56.5491 35.5394 56.3806 34.9729C56.3469 34.8331 56.306 34.6951 56.2581 34.5594C56.0897 34.0082 55.906 33.4569 55.7222 32.9516V32.8444C55.5385 32.3698 55.3394 31.9104 55.1403 31.4816L55.0025 31.1601C54.7881 30.7313 54.5738 30.3179 54.3441 29.9351V29.8585C58.4322 31.0029 62.0513 33.4157 64.68 36.7491ZM55.125 48.9991C55.125 50.1629 55.125 51.3266 55.0178 52.4751L54.926 53.5469C54.926 54.0829 54.8188 54.6035 54.7728 55.0782H43.2272C43.2272 54.5576 43.12 54.0369 43.0741 53.5469L42.9822 52.4751C42.875 51.3266 42.875 50.1629 42.875 48.9991V45.6151C42.875 45.0332 42.9516 44.4513 42.9975 43.8848L43.0894 42.966C43.0894 42.4607 43.2119 41.9401 43.2885 41.4347C43.365 40.9294 43.365 40.8223 43.411 40.5313L43.5488 39.8116H54.2675L54.4053 40.5313C54.4053 40.8223 54.4972 41.1285 54.5278 41.4347C54.5585 41.741 54.6656 42.4607 54.7269 42.966L54.8188 43.8694C54.8188 44.436 54.9106 45.0179 54.9413 45.5998V46.396C55.125 47.2688 55.125 48.1263 55.125 48.9991ZM44.4063 36.5654L44.636 35.8151C44.7431 35.4476 44.8503 35.0648 44.9728 34.7126L45.2331 34.0235C45.3403 33.7172 45.4628 33.411 45.5853 33.1201C45.7078 32.8291 45.7691 32.7219 45.861 32.5229C45.9762 32.2716 46.1039 32.0263 46.2438 31.7879L46.5194 31.2979C46.6419 31.0835 46.7797 30.8997 46.9022 30.716C46.9866 30.5881 47.0787 30.4654 47.1778 30.3485C47.3079 30.1935 47.4459 30.0452 47.5913 29.9044C47.6678 29.8279 47.7597 29.7207 47.8363 29.6594C47.9707 29.5505 48.1141 29.4532 48.265 29.3685L48.4641 29.2307C48.6501 29.14 48.8543 29.0929 49.0613 29.0929C49.2682 29.0929 49.4724 29.14 49.6585 29.2307L49.8575 29.3685C50.0084 29.4532 50.1518 29.5505 50.2863 29.6594C50.3628 29.6594 50.4547 29.8279 50.5313 29.9044C50.6766 30.0452 50.8146 30.1935 50.9447 30.3485C51.0439 30.4654 51.1359 30.5881 51.2203 30.716C51.3428 30.8997 51.4806 31.0835 51.6031 31.2979L51.8788 31.7879C52.0217 32.0299 52.1495 32.2805 52.2616 32.5382C52.3535 32.7219 52.4453 32.9057 52.5372 33.1201C52.6291 33.3344 52.7822 33.7172 52.9047 34.0388L53.1497 34.7126C53.2722 35.0648 53.3794 35.4629 53.5019 35.8457C53.6244 36.2285 53.6397 36.3051 53.7163 36.5654C53.7928 36.8257 53.7163 36.6879 53.7163 36.7491H44.3144C44.3144 36.7491 44.4063 36.6266 44.4063 36.5654ZM43.8091 29.7972V29.8738C43.5794 30.2566 43.365 30.6701 43.1506 31.0988L43.0128 31.4204C42.795 31.8693 42.6008 32.3293 42.431 32.7985V32.8904C42.2472 33.3957 42.0635 33.9469 41.895 34.5135C41.8452 34.6433 41.8043 34.7763 41.7725 34.9116C41.6041 35.4782 41.4356 36.0754 41.2978 36.6879H33.32C35.9727 33.3383 39.6263 30.924 43.7478 29.7972H43.8091ZM29.0938 48.9991C29.095 45.8003 29.8671 42.6488 31.3447 39.8116H40.5322C40.5248 39.9493 40.5248 40.0873 40.5322 40.2251C40.5322 40.516 40.4403 40.8223 40.4097 41.1285C40.3331 41.6644 40.2566 42.2004 40.2106 42.7516C40.2106 43.0732 40.2106 43.3794 40.1188 43.701C40.1188 44.2829 40.0269 44.8801 39.981 45.4772V48.9991C39.981 50.2088 39.981 51.4185 40.1035 52.6129C40.1035 52.9651 40.1035 53.3172 40.18 53.6694C40.2566 54.0216 40.18 54.6494 40.2872 55.2007H30.0585C29.4077 53.1983 29.082 51.1046 29.0938 48.9991ZM43.7785 68.201C41.134 67.4691 38.6676 66.2028 36.5317 64.4804C34.3958 62.7579 32.6357 60.6159 31.36 58.1866H40.5475C40.5475 58.4622 40.6547 58.7379 40.7006 59.0135C40.7466 59.2891 40.7006 59.381 40.8078 59.5648C40.915 59.7485 40.915 60.0854 40.961 60.3304L41.0988 60.9429L41.2825 61.6626C41.2825 61.8616 41.3744 62.076 41.4356 62.2751C41.4969 62.4741 41.5735 62.7651 41.65 63.0101C41.7266 63.2551 41.7572 63.3929 41.8185 63.5766C41.8797 63.7604 41.9563 63.9901 42.0328 64.1891C42.2472 64.8169 42.4616 65.4447 42.7219 66.0266C42.8138 66.2563 42.921 66.486 43.0281 66.7004C43.1353 66.9147 43.166 67.0066 43.2272 67.1444C43.2885 67.2822 43.4722 67.5732 43.5794 67.7876L43.7938 68.1704L43.7785 68.201ZM53.9306 60.3151V60.6213C53.8388 61.0347 53.7316 61.4176 53.6397 61.7851C53.6329 61.8564 53.6329 61.9281 53.6397 61.9994C53.5478 62.3057 53.456 62.5966 53.3794 62.8722C53.3028 63.1479 53.3028 63.0866 53.2569 63.2091L53.0272 63.8676C52.9957 63.983 52.9547 64.0957 52.9047 64.2044L52.675 64.771L52.5372 65.0926L52.3075 65.5979L52.0625 65.8429L51.8328 66.2716C51.7914 66.3685 51.7401 66.4609 51.6797 66.5472L51.45 66.9147C51.45 67.0066 51.3428 67.0832 51.2969 67.1597L51.0672 67.466L50.9141 67.6804L50.6844 67.9407L50.516 68.0938L50.2863 68.3082L50.1331 68.4307L49.9035 68.5838H49.7656L49.5206 68.691H49.3981C49.1673 68.752 48.9246 68.752 48.6938 68.691H48.5713L48.3263 68.5838H48.1885L47.9588 68.4307L47.8056 68.3082L47.4688 68.1397L47.3003 67.9866L47.0706 67.7263L46.9175 67.5119L46.6878 67.2057C46.6878 67.2057 46.5806 67.0526 46.5347 66.9607L46.305 66.5932C46.2446 66.5068 46.1933 66.4145 46.1519 66.3176L45.9375 65.8429L45.7844 65.5519L45.5547 65.0466L45.4169 64.7251L45.1872 64.1585C45.1372 64.0497 45.0963 63.9371 45.0647 63.8216L44.835 63.1632C44.835 63.0407 44.835 62.9335 44.7125 62.8263C44.59 62.7191 44.5441 62.2597 44.4522 61.9535C44.459 61.8822 44.459 61.8104 44.4522 61.7391C44.3603 61.3716 44.2531 60.9888 44.1613 60.5754V60.2691C44.1613 60.1772 44.0235 59.6566 43.9622 59.3351C43.901 59.0135 43.9622 58.9982 43.855 58.8297C43.7478 58.6613 43.855 58.3704 43.7325 58.1407H54.4513C54.4513 58.3704 54.3594 58.6001 54.3288 58.8297C54.2981 59.0594 54.3288 59.1666 54.2216 59.3351C54.1144 59.5035 54.0072 60.0088 53.9306 60.3151ZM54.2216 68.201L54.436 67.8182C54.5431 67.6038 54.6656 67.3894 54.7881 67.1751C54.9106 66.9607 54.9106 66.8841 54.9872 66.731C55.0638 66.5779 55.2016 66.2869 55.2935 66.0572C55.5538 65.4754 55.7681 64.8476 55.9825 64.2197C55.9825 64.0207 56.1356 63.8216 56.1969 63.6072C56.2581 63.3929 56.3041 63.2244 56.3653 63.0407C56.4266 62.8569 56.5185 62.5507 56.5797 62.3057C56.641 62.0607 56.6869 61.8922 56.7328 61.6932L56.9166 60.9735L57.0544 60.361C57.0544 60.116 57.1616 59.8557 57.2075 59.5954C57.2535 59.3351 57.2075 59.2279 57.3147 59.0441C57.4219 58.8604 57.4219 58.4929 57.4678 58.2172H66.6553C65.3747 60.6424 63.6108 62.7795 61.4723 64.4966C59.3338 66.2137 56.8661 67.4745 54.2216 68.201ZM68.0028 55.1241H57.8813C57.8813 54.6494 57.8813 54.1594 57.9885 53.5929C58.0956 53.0263 57.9885 52.8885 58.065 52.5363C58.065 51.3419 58.1875 50.1323 58.1875 48.9226V45.4007C58.1875 44.8035 58.1875 44.2063 58.0497 43.6244C58.0497 43.3029 58.0497 42.9966 57.9578 42.6751C57.9578 42.1238 57.8353 41.5879 57.7588 41.0519C57.7588 40.7457 57.7588 40.4394 57.6363 40.1485C57.6437 40.0108 57.6437 39.8728 57.6363 39.7351H66.8238C68.0421 42.0749 68.7832 44.6335 69.004 47.2622C69.2248 49.8909 68.9209 52.5373 68.11 55.0476L68.0028 55.1241Z" fill="#D7E9F7"/>
<path d="M43.7478 29.7981V29.8747C43.5181 30.2575 43.3037 30.6709 43.0894 31.0997L42.9516 31.4213C42.7337 31.8702 42.5395 32.3302 42.3697 32.7994V32.8912C42.1859 33.3966 42.0022 33.9478 41.8337 34.5144C41.7839 34.6442 41.743 34.7772 41.7112 34.9125C41.5428 35.4791 41.3744 36.0762 41.2366 36.6887H33.32C35.9727 33.3391 39.6263 30.9249 43.7478 29.7981ZM64.68 36.75H56.8553C56.7175 36.1375 56.5491 35.5403 56.3806 34.9738C56.3469 34.8339 56.306 34.696 56.2581 34.5603C56.0897 34.0091 55.9059 33.4578 55.7222 32.9525V32.8453C55.5384 32.3706 55.3394 31.9112 55.1403 31.4825L55.0025 31.1609C54.7881 30.7322 54.5738 30.3187 54.3441 29.9359V29.8594C58.4321 31.0037 62.0513 33.4165 64.68 36.75ZM53.6856 36.75H44.3144V36.5662L44.5441 35.8159C44.6512 35.4484 44.7584 35.0656 44.8809 34.7134L45.1412 34.0244C45.2484 33.7181 45.3709 33.4119 45.4934 33.1209C45.6159 32.83 45.6772 32.7228 45.7691 32.5237C45.8843 32.2725 46.012 32.0272 46.1519 31.7888L46.4275 31.2988C46.55 31.0844 46.6878 30.9006 46.8103 30.7169C46.8947 30.589 46.9868 30.4662 47.0859 30.3494C47.216 30.1943 47.354 30.0461 47.4994 29.9053C47.5759 29.8288 47.6678 29.7216 47.7444 29.6603C47.8788 29.5514 48.0222 29.4541 48.1731 29.3694L48.3722 29.2316C48.5582 29.1409 48.7624 29.0938 48.9694 29.0938C49.1763 29.0938 49.3805 29.1409 49.5666 29.2316L49.7656 29.3694C49.9165 29.4541 50.0599 29.5514 50.1944 29.6603C50.2709 29.6603 50.3628 29.8288 50.4394 29.9053C50.5847 30.0461 50.7227 30.1943 50.8528 30.3494C50.952 30.4662 51.044 30.589 51.1284 30.7169C51.2509 30.9006 51.3887 31.0844 51.5112 31.2988L51.7869 31.7888C51.9298 32.0308 52.0576 32.2813 52.1697 32.5391C52.2616 32.7228 52.3534 32.9066 52.4453 33.1209C52.5372 33.3353 52.6903 33.7181 52.8128 34.0397L53.0578 34.7134C53.1803 35.0656 53.2875 35.4637 53.41 35.8466C53.5325 36.2294 53.5478 36.3059 53.6244 36.5662C53.7009 36.8266 53.6703 36.75 53.6856 36.75ZM40.5322 39.8125C40.5248 39.9502 40.5248 40.0882 40.5322 40.2259C40.5322 40.5169 40.4403 40.8231 40.4097 41.1294C40.3331 41.6653 40.2566 42.2013 40.2106 42.7525C40.2106 43.0741 40.2106 43.3803 40.1187 43.7019C40.1187 44.2838 40.0269 44.8809 39.9809 45.4781V49C39.9809 50.2097 39.9809 51.4194 40.1034 52.6138C40.1034 52.9659 40.1034 53.3181 40.18 53.6703C40.2566 54.0225 40.18 54.6503 40.2872 55.2016H30.0584C29.2475 52.6913 28.9437 50.0449 29.1645 47.4162C29.3853 44.7875 30.1264 42.2289 31.3447 39.8891L40.5322 39.8125ZM43.7784 68.1866C41.1353 67.4564 38.6698 66.1925 36.534 64.4728C34.3982 62.753 32.6373 60.614 31.36 58.1875H40.5475C40.5475 58.4631 40.6547 58.7388 40.7006 59.0144C40.7466 59.29 40.7006 59.3819 40.8078 59.5656C40.915 59.7494 40.915 60.0863 40.9609 60.3313L41.0987 60.9437L41.2825 61.6634C41.2825 61.8625 41.3744 62.0769 41.4356 62.2759C41.4969 62.475 41.5734 62.7659 41.65 63.0109C41.7266 63.2559 41.7572 63.3937 41.8184 63.5775C41.8797 63.7612 41.9563 63.9909 42.0328 64.19C42.2472 64.8178 42.4616 65.4456 42.7219 66.0275C42.8137 66.2572 42.9209 66.4869 43.0281 66.7013C43.1353 66.9156 43.1659 67.0075 43.2272 67.1453C43.2884 67.2831 43.4722 67.5741 43.5794 67.7884L43.7784 68.1866ZM66.64 58.1875C65.3643 60.6168 63.6042 62.7588 61.4683 64.4813C59.3324 66.2037 56.866 67.47 54.2216 68.2019L54.4359 67.8191C54.5431 67.6047 54.6656 67.3903 54.7881 67.1759C54.9106 66.9616 54.9106 66.885 54.9872 66.7319C55.0637 66.5788 55.2016 66.2878 55.2934 66.0581C55.5537 65.4762 55.7681 64.8484 55.9825 64.2206C55.9825 64.0216 56.1356 63.8225 56.1969 63.6081C56.2581 63.3938 56.3041 63.2253 56.3653 63.0416C56.4266 62.8578 56.5184 62.5516 56.5797 62.3066C56.6409 62.0616 56.6869 61.8931 56.7328 61.6941L56.9166 60.9744L57.0544 60.3619C57.0544 60.1169 57.1616 59.8566 57.2075 59.5962C57.2534 59.3359 57.2075 59.2288 57.3147 59.045C57.4219 58.8613 57.4219 58.4938 57.4678 58.2181H66.6553L66.64 58.1875ZM54.3594 58.1875C54.3594 58.4172 54.2675 58.6469 54.2369 58.8766C54.2062 59.1063 54.2369 59.2134 54.1297 59.3819C54.0225 59.5503 54.0072 60.0097 53.9306 60.3159C53.8541 60.6222 53.9306 60.5303 53.9306 60.6222C53.8388 61.0356 53.7316 61.4184 53.6397 61.7859C53.6329 61.8572 53.6329 61.929 53.6397 62.0003C53.5478 62.3066 53.4559 62.5975 53.3794 62.8731C53.3028 63.1488 53.3028 63.0875 53.2569 63.21L53.0272 63.8684C52.9956 63.9839 52.9547 64.0966 52.9047 64.2053L52.675 64.7719L52.5372 65.0934L52.3075 65.5988L52.0625 65.8438L51.8328 66.2725C51.7914 66.3694 51.7401 66.4618 51.6797 66.5481L51.45 66.9156C51.45 67.0075 51.3428 67.0841 51.2969 67.1606L51.0672 67.4669L50.9141 67.6813L50.6844 67.9416L50.5159 68.0947L50.2862 68.3091L50.1331 68.4316L49.9034 68.5847H49.7656L49.5206 68.6919H49.3981C49.1673 68.7529 48.9246 68.7529 48.6937 68.6919H48.5712L48.3262 68.5847H48.1884L47.9587 68.4316L47.8056 68.3091L47.4687 68.1406L47.3003 67.9875L47.0706 67.7272L46.9175 67.5128L46.6878 67.2066C46.6878 67.2066 46.5806 67.0534 46.5347 66.9616L46.305 66.5941C46.2446 66.5077 46.1933 66.4153 46.1519 66.3184L45.9375 65.8438L45.7844 65.5528L45.5547 65.0475L45.4169 64.7259L45.1872 64.1594C45.1372 64.0506 45.0962 63.938 45.0647 63.8225L44.835 63.1641C44.835 63.0416 44.835 62.9344 44.7125 62.8272C44.59 62.72 44.5441 62.2606 44.4522 61.9544C44.459 61.8831 44.459 61.8113 44.4522 61.74C44.3603 61.3725 44.2531 60.9897 44.1612 60.5763V60.27C44.1612 60.1781 44.0234 59.6575 43.9622 59.3359C43.9009 59.0144 43.9622 58.9991 43.855 58.8306C43.7478 58.6622 43.855 58.3713 43.7325 58.1416L54.3594 58.1875ZM55.125 49C55.125 50.1637 55.125 51.3275 55.0178 52.4759L54.9259 53.5478C54.9259 54.0838 54.8188 54.6044 54.7728 55.0791H43.2272C43.2272 54.5584 43.12 54.0378 43.0741 53.5478L42.9822 52.4759C42.875 51.3275 42.875 50.1637 42.875 49V45.6159C42.875 45.0341 42.9516 44.4522 42.9975 43.8856L43.0894 42.9669C43.0894 42.4616 43.2119 41.9409 43.2884 41.4356C43.365 40.9303 43.365 40.8231 43.4109 40.5322L43.5487 39.8125H54.2675L54.4053 40.5322C54.4053 40.8231 54.4972 41.1294 54.5278 41.4356C54.5584 41.7419 54.6656 42.4616 54.7269 42.9669L54.8187 43.8703C54.8187 44.4369 54.9106 45.0188 54.9412 45.6006V46.3969C55.125 47.2697 55.125 48.1272 55.125 49ZM68.9062 49C68.9099 51.0798 68.5843 53.147 67.9416 55.125H57.8812C57.8812 54.6503 57.8812 54.1603 57.9884 53.5938C58.0956 53.0272 57.9884 52.8894 58.065 52.5372C58.065 51.3428 58.1875 50.1331 58.1875 48.9234V45.4016C58.1875 44.8044 58.1875 44.2072 58.0497 43.6253C58.0497 43.3038 58.0497 42.9975 57.9578 42.6759C57.9578 42.1247 57.8353 41.5887 57.7588 41.0528C57.7588 40.7466 57.7587 40.4403 57.6362 40.1494C57.6437 40.0117 57.6437 39.8737 57.6362 39.7359H66.8237C68.255 42.6108 68.9695 45.7892 68.9062 49Z" fill="#54A5FF"/>
<path d="M88.8125 10.7188V13.7812C88.8125 14.9996 88.3285 16.168 87.467 17.0295C86.6055 17.891 85.4371 18.375 84.2188 18.375C83.0004 18.375 81.832 17.891 80.9705 17.0295C80.109 16.168 79.625 14.9996 79.625 13.7812V10.7188C79.625 9.50041 80.109 8.33197 80.9705 7.47048C81.832 6.60898 83.0004 6.125 84.2188 6.125C85.4371 6.125 86.6055 6.60898 87.467 7.47048C88.3285 8.33197 88.8125 9.50041 88.8125 10.7188Z" fill="#60C1FE"/>
<path d="M91.875 24.5V29.0938C91.875 29.4999 91.7137 29.8893 91.4265 30.1765C91.1393 30.4637 90.7499 30.625 90.3438 30.625H78.0938C77.6876 30.625 77.2982 30.4637 77.011 30.1765C76.7238 29.8893 76.5625 29.4999 76.5625 29.0938V24.5C76.5625 22.8755 77.2078 21.3176 78.3565 20.169C79.5051 19.0203 81.063 18.375 82.6875 18.375H85.75C87.3745 18.375 88.9324 19.0203 90.081 20.169C91.2297 21.3176 91.875 22.8755 91.875 24.5Z" fill="#60C1FE"/>
<path d="M18.375 10.7188V13.7812C18.375 14.9996 17.891 16.168 17.0295 17.0295C16.168 17.891 14.9996 18.375 13.7812 18.375C12.5629 18.375 11.3945 17.891 10.533 17.0295C9.67148 16.168 9.1875 14.9996 9.1875 13.7812V10.7188C9.1875 9.50041 9.67148 8.33197 10.533 7.47048C11.3945 6.60898 12.5629 6.125 13.7812 6.125C14.9996 6.125 16.168 6.60898 17.0295 7.47048C17.891 8.33197 18.375 9.50041 18.375 10.7188Z" fill="#60C1FE"/>
<path d="M21.4375 24.5V30.625H6.125V24.5C6.125 22.8755 6.77031 21.3176 7.91897 20.169C9.06763 19.0203 10.6255 18.375 12.25 18.375H15.3125C16.937 18.375 18.4949 19.0203 19.6435 20.169C20.7922 21.3176 21.4375 22.8755 21.4375 24.5Z" fill="#60C1FE"/>
<path d="M88.8125 71.9688V75.0312C88.8125 76.2496 88.3285 77.418 87.467 78.2795C86.6055 79.141 85.4371 79.625 84.2188 79.625C83.0004 79.625 81.832 79.141 80.9705 78.2795C80.109 77.418 79.625 76.2496 79.625 75.0312V71.9688C79.625 70.7504 80.109 69.582 80.9705 68.7205C81.832 67.859 83.0004 67.375 84.2188 67.375C85.4371 67.375 86.6055 67.859 87.467 68.7205C88.3285 69.582 88.8125 70.7504 88.8125 71.9688Z" fill="#60C1FE"/>
<path d="M91.875 85.75V90.3438C91.875 90.7499 91.7137 91.1393 91.4265 91.4265C91.1393 91.7137 90.7499 91.875 90.3438 91.875H78.0938C77.6876 91.875 77.2982 91.7137 77.011 91.4265C76.7238 91.1393 76.5625 90.7499 76.5625 90.3438V85.75C76.5625 84.1255 77.2078 82.5676 78.3565 81.419C79.5051 80.2703 81.063 79.625 82.6875 79.625H85.75C87.3745 79.625 88.9324 80.2703 90.081 81.419C91.2297 82.5676 91.875 84.1255 91.875 85.75Z" fill="#60C1FE"/>
<path d="M18.375 71.9688V75.0312C18.375 76.2496 17.891 77.418 17.0295 78.2795C16.168 79.141 14.9996 79.625 13.7812 79.625C12.5629 79.625 11.3945 79.141 10.533 78.2795C9.67148 77.418 9.1875 76.2496 9.1875 75.0312V71.9688C9.1875 70.7504 9.67148 69.582 10.533 68.7205C11.3945 67.859 12.5629 67.375 13.7812 67.375C14.9996 67.375 16.168 67.859 17.0295 68.7205C17.891 69.582 18.375 70.7504 18.375 71.9688Z" fill="#60C1FE"/>
<path d="M21.4375 85.75V90.3438C21.4375 90.7499 21.2762 91.1393 20.989 91.4265C20.7018 91.7137 20.3124 91.875 19.9062 91.875H7.65625C7.25014 91.875 6.86066 91.7137 6.57349 91.4265C6.28633 91.1393 6.125 90.7499 6.125 90.3438V85.75C6.125 84.1255 6.77031 82.5676 7.91897 81.419C9.06763 80.2703 10.6255 79.625 12.25 79.625H15.3125C16.937 79.625 18.4949 80.2703 19.6435 81.419C20.7922 82.5676 21.4375 84.1255 21.4375 85.75Z" fill="#60C1FE"/>
<path d="M10.4585 75.0304C10.1562 75.0315 9.85825 74.958 9.59115 74.8164C9.32404 74.6749 9.09599 74.4696 8.92721 74.2188C4.1097 66.6319 1.54497 57.8332 1.53127 48.846C1.5076 41.8078 3.07812 34.8556 6.12502 28.511C6.33858 28.1022 6.69805 27.7887 7.13206 27.6327C7.56608 27.4767 8.04289 27.4896 8.46783 27.6688C8.68178 27.734 8.87886 27.8452 9.04522 27.9947C9.21157 28.1442 9.34316 28.3283 9.43073 28.5341C9.51831 28.7399 9.55974 28.9623 9.55211 29.1859C9.54448 29.4094 9.48798 29.6285 9.38658 29.8279C6.54561 35.7642 5.08009 42.2649 5.09908 48.846C5.11702 57.236 7.51145 65.4492 12.005 72.5344C12.1294 72.7195 12.2119 72.9294 12.2467 73.1496C12.2815 73.3698 12.2678 73.595 12.2065 73.8094C12.1453 74.0237 12.038 74.2221 11.8921 74.3907C11.7462 74.5593 11.5652 74.694 11.3619 74.7854C11.0829 74.9335 10.7741 75.0173 10.4585 75.0304ZM88.3072 75.0304C87.9939 75.0268 87.6853 74.9536 87.4038 74.816C87.2004 74.7246 87.0195 74.5899 86.8736 74.4213C86.7277 74.2528 86.6204 74.0543 86.5591 73.84C86.4979 73.6256 86.4842 73.4005 86.519 73.1802C86.5538 72.96 86.6363 72.7501 86.7606 72.5651C91.2598 65.4711 93.6544 57.2464 93.6666 48.846C93.6712 42.2613 92.19 35.7605 89.3331 29.8279C89.2317 29.6285 89.1752 29.4094 89.1676 29.1859C89.16 28.9623 89.2014 28.7399 89.289 28.5341C89.3766 28.3283 89.5082 28.1442 89.6745 27.9947C89.8409 27.8452 90.0379 27.734 90.2519 27.6688C90.6768 27.4896 91.1536 27.4767 91.5877 27.6327C92.0217 27.7887 92.3811 28.1022 92.5947 28.511C95.6416 34.8556 97.2121 41.8078 97.1885 48.846C97.1735 57.8213 94.6144 66.6084 89.8078 74.1882C89.6454 74.4404 89.4238 74.649 89.1622 74.7958C88.9006 74.9426 88.6071 75.0231 88.3072 75.0304ZM81.1563 16.4447C80.761 16.4554 80.3769 16.3128 80.0844 16.0466C71.4378 8.65532 60.4364 4.594 49.0613 4.594C37.6861 4.594 26.6847 8.65532 18.0381 16.0466C17.7205 16.3201 17.31 16.4614 16.8913 16.4415C16.4726 16.4215 16.0775 16.2419 15.7872 15.9394C15.508 15.6465 15.3562 15.255 15.3648 14.8504C15.3734 14.4459 15.5418 14.0612 15.8331 13.7804C25.0752 5.87405 36.8376 1.5293 49 1.5293C61.1625 1.5293 72.9249 5.87405 82.1669 13.7804C82.4668 14.0528 82.6464 14.4331 82.6665 14.8378C82.6866 15.2424 82.5455 15.6386 82.2741 15.9394C81.9819 16.2476 81.5806 16.429 81.1563 16.4447ZM49 96.4679C38.2584 96.5215 27.7711 93.2007 19.0181 86.9741C18.8561 86.8546 18.7192 86.7043 18.6153 86.5318C18.5115 86.3593 18.4426 86.1681 18.4127 85.9689C18.3829 85.7698 18.3926 85.5668 18.4413 85.3714C18.49 85.176 18.5767 84.9922 18.6966 84.8304C18.9638 84.5046 19.3444 84.292 19.7619 84.2352C20.1794 84.1784 20.603 84.2816 20.9475 84.5241C29.16 90.3042 38.9574 93.4064 49 93.4064C59.0426 93.4064 68.8401 90.3042 77.0525 84.5241C77.3971 84.2816 77.8206 84.1784 78.2381 84.2352C78.6556 84.292 79.0362 84.5046 79.3035 84.8304C79.4233 84.9922 79.5101 85.176 79.5588 85.3714C79.6075 85.5668 79.6172 85.7698 79.5873 85.9689C79.5574 86.1681 79.4886 86.3593 79.3847 86.5318C79.2808 86.7043 79.1439 86.8546 78.9819 86.9741C70.2289 93.2007 59.7416 96.5215 49 96.4679ZM68.9063 37.5148C66.3814 33.1286 62.4787 29.6992 57.8043 27.7592C53.13 25.8193 47.9458 25.4775 43.0572 26.7869C38.1686 28.0964 33.8493 30.9837 30.7705 35.0004C27.6917 39.0171 26.0256 43.9382 26.0313 48.9991C26.0297 51.8061 26.5489 54.589 27.5625 57.2066C29.2293 61.5397 32.1699 65.266 35.9969 67.8942C39.8239 70.5225 44.3575 71.9293 49 71.9293C53.6426 71.9293 58.1762 70.5225 62.0031 67.8942C65.8301 65.266 68.7708 61.5397 70.4375 57.2066C71.4511 54.589 71.9704 51.8061 71.9688 48.9991C71.9733 44.9686 70.9171 41.0079 68.9063 37.5148ZM64.68 36.7491H56.8553C56.7175 36.1366 56.5491 35.5394 56.3806 34.9729C56.3469 34.8331 56.306 34.6951 56.2581 34.5594C56.0897 34.0082 55.906 33.4569 55.7222 32.9516V32.8444C55.5385 32.3698 55.3394 31.9104 55.1403 31.4816L55.0025 31.1601C54.7881 30.7313 54.5738 30.3179 54.3441 29.9351V29.8585C58.4322 31.0029 62.0513 33.4157 64.68 36.7491ZM55.125 48.9991C55.125 50.1629 55.125 51.3266 55.0178 52.4751L54.926 53.5469C54.926 54.0829 54.8188 54.6035 54.7728 55.0782H43.2272C43.2272 54.5576 43.12 54.0369 43.0741 53.5469L42.9822 52.4751C42.875 51.3266 42.875 50.1629 42.875 48.9991V45.6151C42.875 45.0332 42.9516 44.4513 42.9975 43.8848L43.0894 42.966C43.0894 42.4607 43.2119 41.9401 43.2885 41.4347C43.365 40.9294 43.365 40.8223 43.411 40.5313L43.5488 39.8116H54.2675L54.4053 40.5313C54.4053 40.8223 54.4972 41.1285 54.5278 41.4347C54.5585 41.741 54.6656 42.4607 54.7269 42.966L54.8188 43.8694C54.8188 44.436 54.9106 45.0179 54.9413 45.5998V46.396C55.125 47.2688 55.125 48.1263 55.125 48.9991ZM44.4063 36.5654L44.636 35.8151C44.7431 35.4476 44.8503 35.0648 44.9728 34.7126L45.2331 34.0235C45.3403 33.7172 45.4628 33.411 45.5853 33.1201C45.7078 32.8291 45.7691 32.7219 45.861 32.5229C45.9762 32.2716 46.1039 32.0263 46.2438 31.7879L46.5194 31.2979C46.6419 31.0835 46.7797 30.8997 46.9022 30.716C46.9866 30.5881 47.0787 30.4654 47.1778 30.3485C47.3079 30.1935 47.4459 30.0452 47.5913 29.9044C47.6678 29.8279 47.7597 29.7207 47.8363 29.6594C47.9707 29.5505 48.1141 29.4532 48.265 29.3685L48.4641 29.2307C48.6501 29.14 48.8543 29.0929 49.0613 29.0929C49.2682 29.0929 49.4724 29.14 49.6585 29.2307L49.8575 29.3685C50.0084 29.4532 50.1518 29.5505 50.2863 29.6594C50.3628 29.6594 50.4547 29.8279 50.5313 29.9044C50.6766 30.0452 50.8146 30.1935 50.9447 30.3485C51.0439 30.4654 51.1359 30.5881 51.2203 30.716C51.3428 30.8997 51.4806 31.0835 51.6031 31.2979L51.8788 31.7879C52.0217 32.0299 52.1495 32.2805 52.2616 32.5382C52.3535 32.7219 52.4453 32.9057 52.5372 33.1201C52.6291 33.3344 52.7822 33.7172 52.9047 34.0388L53.1497 34.7126C53.2722 35.0648 53.3794 35.4629 53.5019 35.8457C53.6244 36.2285 53.6397 36.3051 53.7163 36.5654C53.7928 36.8257 53.7163 36.6879 53.7163 36.7491H44.3144C44.3144 36.7491 44.4063 36.6266 44.4063 36.5654ZM43.8091 29.7972V29.8738C43.5794 30.2566 43.365 30.6701 43.1506 31.0988L43.0128 31.4204C42.795 31.8693 42.6008 32.3293 42.431 32.7985V32.8904C42.2472 33.3957 42.0635 33.9469 41.895 34.5135C41.8452 34.6433 41.8043 34.7763 41.7725 34.9116C41.6041 35.4782 41.4356 36.0754 41.2978 36.6879H33.32C35.9727 33.3383 39.6263 30.924 43.7478 29.7972H43.8091ZM29.0938 48.9991C29.095 45.8003 29.8671 42.6488 31.3447 39.8116H40.5322C40.5248 39.9493 40.5248 40.0873 40.5322 40.2251C40.5322 40.516 40.4403 40.8223 40.4097 41.1285C40.3331 41.6644 40.2566 42.2004 40.2106 42.7516C40.2106 43.0732 40.2106 43.3794 40.1188 43.701C40.1188 44.2829 40.0269 44.8801 39.981 45.4772V48.9991C39.981 50.2088 39.981 51.4185 40.1035 52.6129C40.1035 52.9651 40.1035 53.3172 40.18 53.6694C40.2566 54.0216 40.18 54.6494 40.2872 55.2007H30.0585C29.4077 53.1983 29.082 51.1046 29.0938 48.9991ZM43.7785 68.201C41.134 67.4691 38.6676 66.2028 36.5317 64.4804C34.3958 62.7579 32.6357 60.6159 31.36 58.1866H40.5475C40.5475 58.4622 40.6547 58.7379 40.7006 59.0135C40.7466 59.2891 40.7006 59.381 40.8078 59.5648C40.915 59.7485 40.915 60.0854 40.961 60.3304L41.0988 60.9429L41.2825 61.6626C41.2825 61.8616 41.3744 62.076 41.4356 62.2751C41.4969 62.4741 41.5735 62.7651 41.65 63.0101C41.7266 63.2551 41.7572 63.3929 41.8185 63.5766C41.8797 63.7604 41.9563 63.9901 42.0328 64.1891C42.2472 64.8169 42.4616 65.4447 42.7219 66.0266C42.8138 66.2563 42.921 66.486 43.0281 66.7004C43.1353 66.9147 43.166 67.0066 43.2272 67.1444C43.2885 67.2822 43.4722 67.5732 43.5794 67.7876L43.7938 68.1704L43.7785 68.201ZM53.9306 60.3151V60.6213C53.8388 61.0347 53.7316 61.4176 53.6397 61.7851C53.6329 61.8564 53.6329 61.9281 53.6397 61.9994C53.5478 62.3057 53.456 62.5966 53.3794 62.8722C53.3028 63.1479 53.3028 63.0866 53.2569 63.2091L53.0272 63.8676C52.9957 63.983 52.9547 64.0957 52.9047 64.2044L52.675 64.771L52.5372 65.0926L52.3075 65.5979L52.0625 65.8429L51.8328 66.2716C51.7914 66.3685 51.7401 66.4609 51.6797 66.5472L51.45 66.9147C51.45 67.0066 51.3428 67.0832 51.2969 67.1597L51.0672 67.466L50.9141 67.6804L50.6844 67.9407L50.516 68.0938L50.2863 68.3082L50.1331 68.4307L49.9035 68.5838H49.7656L49.5206 68.691H49.3981C49.1673 68.752 48.9246 68.752 48.6938 68.691H48.5713L48.3263 68.5838H48.1885L47.9588 68.4307L47.8056 68.3082L47.4688 68.1397L47.3003 67.9866L47.0706 67.7263L46.9175 67.5119L46.6878 67.2057C46.6878 67.2057 46.5806 67.0526 46.5347 66.9607L46.305 66.5932C46.2446 66.5068 46.1933 66.4145 46.1519 66.3176L45.9375 65.8429L45.7844 65.5519L45.5547 65.0466L45.4169 64.7251L45.1872 64.1585C45.1372 64.0497 45.0963 63.9371 45.0647 63.8216L44.835 63.1632C44.835 63.0407 44.835 62.9335 44.7125 62.8263C44.59 62.7191 44.5441 62.2597 44.4522 61.9535C44.459 61.8822 44.459 61.8104 44.4522 61.7391C44.3603 61.3716 44.2531 60.9888 44.1613 60.5754V60.2691C44.1613 60.1772 44.0235 59.6566 43.9622 59.3351C43.901 59.0135 43.9622 58.9982 43.855 58.8297C43.7478 58.6613 43.855 58.3704 43.7325 58.1407H54.4513C54.4513 58.3704 54.3594 58.6001 54.3288 58.8297C54.2981 59.0594 54.3288 59.1666 54.2216 59.3351C54.1144 59.5035 54.0072 60.0088 53.9306 60.3151ZM54.2216 68.201L54.436 67.8182C54.5431 67.6038 54.6656 67.3894 54.7881 67.1751C54.9106 66.9607 54.9106 66.8841 54.9872 66.731C55.0638 66.5779 55.2016 66.2869 55.2935 66.0572C55.5538 65.4754 55.7681 64.8476 55.9825 64.2197C55.9825 64.0207 56.1356 63.8216 56.1969 63.6072C56.2581 63.3929 56.3041 63.2244 56.3653 63.0407C56.4266 62.8569 56.5185 62.5507 56.5797 62.3057C56.641 62.0607 56.6869 61.8922 56.7328 61.6932L56.9166 60.9735L57.0544 60.361C57.0544 60.116 57.1616 59.8557 57.2075 59.5954C57.2535 59.3351 57.2075 59.2279 57.3147 59.0441C57.4219 58.8604 57.4219 58.4929 57.4678 58.2172H66.6553C65.3747 60.6424 63.6108 62.7795 61.4723 64.4966C59.3338 66.2137 56.8661 67.4745 54.2216 68.201ZM68.0028 55.1241H57.8813C57.8813 54.6494 57.8813 54.1594 57.9885 53.5929C58.0956 53.0263 57.9885 52.8885 58.065 52.5363C58.065 51.3419 58.1875 50.1323 58.1875 48.9226V45.4007C58.1875 44.8035 58.1875 44.2063 58.0497 43.6244C58.0497 43.3029 58.0497 42.9966 57.9578 42.6751C57.9578 42.1238 57.8353 41.5879 57.7588 41.0519C57.7588 40.7457 57.7588 40.4394 57.6363 40.1485C57.6437 40.0108 57.6437 39.8728 57.6363 39.7351H66.8238C68.0421 42.0749 68.7832 44.6335 69.004 47.2622C69.2248 49.8909 68.9209 52.5373 68.11 55.0476L68.0028 55.1241Z" fill="#D7E9F7"/>
<path d="M43.7478 29.7981V29.8747C43.5181 30.2575 43.3037 30.6709 43.0894 31.0997L42.9516 31.4213C42.7337 31.8702 42.5395 32.3302 42.3697 32.7994V32.8912C42.1859 33.3966 42.0022 33.9478 41.8337 34.5144C41.7839 34.6442 41.743 34.7772 41.7112 34.9125C41.5428 35.4791 41.3744 36.0762 41.2366 36.6887H33.32C35.9727 33.3391 39.6263 30.9249 43.7478 29.7981ZM64.68 36.75H56.8553C56.7175 36.1375 56.5491 35.5403 56.3806 34.9738C56.3469 34.8339 56.306 34.696 56.2581 34.5603C56.0897 34.0091 55.9059 33.4578 55.7222 32.9525V32.8453C55.5384 32.3706 55.3394 31.9112 55.1403 31.4825L55.0025 31.1609C54.7881 30.7322 54.5738 30.3187 54.3441 29.9359V29.8594C58.4321 31.0037 62.0513 33.4165 64.68 36.75ZM53.6856 36.75H44.3144V36.5662L44.5441 35.8159C44.6512 35.4484 44.7584 35.0656 44.8809 34.7134L45.1412 34.0244C45.2484 33.7181 45.3709 33.4119 45.4934 33.1209C45.6159 32.83 45.6772 32.7228 45.7691 32.5237C45.8843 32.2725 46.012 32.0272 46.1519 31.7888L46.4275 31.2988C46.55 31.0844 46.6878 30.9006 46.8103 30.7169C46.8947 30.589 46.9868 30.4662 47.0859 30.3494C47.216 30.1943 47.354 30.0461 47.4994 29.9053C47.5759 29.8288 47.6678 29.7216 47.7444 29.6603C47.8788 29.5514 48.0222 29.4541 48.1731 29.3694L48.3722 29.2316C48.5582 29.1409 48.7624 29.0938 48.9694 29.0938C49.1763 29.0938 49.3805 29.1409 49.5666 29.2316L49.7656 29.3694C49.9165 29.4541 50.0599 29.5514 50.1944 29.6603C50.2709 29.6603 50.3628 29.8288 50.4394 29.9053C50.5847 30.0461 50.7227 30.1943 50.8528 30.3494C50.952 30.4662 51.044 30.589 51.1284 30.7169C51.2509 30.9006 51.3887 31.0844 51.5112 31.2988L51.7869 31.7888C51.9298 32.0308 52.0576 32.2813 52.1697 32.5391C52.2616 32.7228 52.3534 32.9066 52.4453 33.1209C52.5372 33.3353 52.6903 33.7181 52.8128 34.0397L53.0578 34.7134C53.1803 35.0656 53.2875 35.4637 53.41 35.8466C53.5325 36.2294 53.5478 36.3059 53.6244 36.5662C53.7009 36.8266 53.6703 36.75 53.6856 36.75ZM40.5322 39.8125C40.5248 39.9502 40.5248 40.0882 40.5322 40.2259C40.5322 40.5169 40.4403 40.8231 40.4097 41.1294C40.3331 41.6653 40.2566 42.2013 40.2106 42.7525C40.2106 43.0741 40.2106 43.3803 40.1187 43.7019C40.1187 44.2838 40.0269 44.8809 39.9809 45.4781V49C39.9809 50.2097 39.9809 51.4194 40.1034 52.6138C40.1034 52.9659 40.1034 53.3181 40.18 53.6703C40.2566 54.0225 40.18 54.6503 40.2872 55.2016H30.0584C29.2475 52.6913 28.9437 50.0449 29.1645 47.4162C29.3853 44.7875 30.1264 42.2289 31.3447 39.8891L40.5322 39.8125ZM43.7784 68.1866C41.1353 67.4564 38.6698 66.1925 36.534 64.4728C34.3982 62.753 32.6373 60.614 31.36 58.1875H40.5475C40.5475 58.4631 40.6547 58.7388 40.7006 59.0144C40.7466 59.29 40.7006 59.3819 40.8078 59.5656C40.915 59.7494 40.915 60.0863 40.9609 60.3313L41.0987 60.9437L41.2825 61.6634C41.2825 61.8625 41.3744 62.0769 41.4356 62.2759C41.4969 62.475 41.5734 62.7659 41.65 63.0109C41.7266 63.2559 41.7572 63.3937 41.8184 63.5775C41.8797 63.7612 41.9563 63.9909 42.0328 64.19C42.2472 64.8178 42.4616 65.4456 42.7219 66.0275C42.8137 66.2572 42.9209 66.4869 43.0281 66.7013C43.1353 66.9156 43.1659 67.0075 43.2272 67.1453C43.2884 67.2831 43.4722 67.5741 43.5794 67.7884L43.7784 68.1866ZM66.64 58.1875C65.3643 60.6168 63.6042 62.7588 61.4683 64.4813C59.3324 66.2037 56.866 67.47 54.2216 68.2019L54.4359 67.8191C54.5431 67.6047 54.6656 67.3903 54.7881 67.1759C54.9106 66.9616 54.9106 66.885 54.9872 66.7319C55.0637 66.5788 55.2016 66.2878 55.2934 66.0581C55.5537 65.4762 55.7681 64.8484 55.9825 64.2206C55.9825 64.0216 56.1356 63.8225 56.1969 63.6081C56.2581 63.3938 56.3041 63.2253 56.3653 63.0416C56.4266 62.8578 56.5184 62.5516 56.5797 62.3066C56.6409 62.0616 56.6869 61.8931 56.7328 61.6941L56.9166 60.9744L57.0544 60.3619C57.0544 60.1169 57.1616 59.8566 57.2075 59.5962C57.2534 59.3359 57.2075 59.2288 57.3147 59.045C57.4219 58.8613 57.4219 58.4938 57.4678 58.2181H66.6553L66.64 58.1875ZM54.3594 58.1875C54.3594 58.4172 54.2675 58.6469 54.2369 58.8766C54.2062 59.1063 54.2369 59.2134 54.1297 59.3819C54.0225 59.5503 54.0072 60.0097 53.9306 60.3159C53.8541 60.6222 53.9306 60.5303 53.9306 60.6222C53.8388 61.0356 53.7316 61.4184 53.6397 61.7859C53.6329 61.8572 53.6329 61.929 53.6397 62.0003C53.5478 62.3066 53.4559 62.5975 53.3794 62.8731C53.3028 63.1488 53.3028 63.0875 53.2569 63.21L53.0272 63.8684C52.9956 63.9839 52.9547 64.0966 52.9047 64.2053L52.675 64.7719L52.5372 65.0934L52.3075 65.5988L52.0625 65.8438L51.8328 66.2725C51.7914 66.3694 51.7401 66.4618 51.6797 66.5481L51.45 66.9156C51.45 67.0075 51.3428 67.0841 51.2969 67.1606L51.0672 67.4669L50.9141 67.6813L50.6844 67.9416L50.5159 68.0947L50.2862 68.3091L50.1331 68.4316L49.9034 68.5847H49.7656L49.5206 68.6919H49.3981C49.1673 68.7529 48.9246 68.7529 48.6937 68.6919H48.5712L48.3262 68.5847H48.1884L47.9587 68.4316L47.8056 68.3091L47.4687 68.1406L47.3003 67.9875L47.0706 67.7272L46.9175 67.5128L46.6878 67.2066C46.6878 67.2066 46.5806 67.0534 46.5347 66.9616L46.305 66.5941C46.2446 66.5077 46.1933 66.4153 46.1519 66.3184L45.9375 65.8438L45.7844 65.5528L45.5547 65.0475L45.4169 64.7259L45.1872 64.1594C45.1372 64.0506 45.0962 63.938 45.0647 63.8225L44.835 63.1641C44.835 63.0416 44.835 62.9344 44.7125 62.8272C44.59 62.72 44.5441 62.2606 44.4522 61.9544C44.459 61.8831 44.459 61.8113 44.4522 61.74C44.3603 61.3725 44.2531 60.9897 44.1612 60.5763V60.27C44.1612 60.1781 44.0234 59.6575 43.9622 59.3359C43.9009 59.0144 43.9622 58.9991 43.855 58.8306C43.7478 58.6622 43.855 58.3713 43.7325 58.1416L54.3594 58.1875ZM55.125 49C55.125 50.1637 55.125 51.3275 55.0178 52.4759L54.9259 53.5478C54.9259 54.0838 54.8188 54.6044 54.7728 55.0791H43.2272C43.2272 54.5584 43.12 54.0378 43.0741 53.5478L42.9822 52.4759C42.875 51.3275 42.875 50.1637 42.875 49V45.6159C42.875 45.0341 42.9516 44.4522 42.9975 43.8856L43.0894 42.9669C43.0894 42.4616 43.2119 41.9409 43.2884 41.4356C43.365 40.9303 43.365 40.8231 43.4109 40.5322L43.5487 39.8125H54.2675L54.4053 40.5322C54.4053 40.8231 54.4972 41.1294 54.5278 41.4356C54.5584 41.7419 54.6656 42.4616 54.7269 42.9669L54.8187 43.8703C54.8187 44.4369 54.9106 45.0188 54.9412 45.6006V46.3969C55.125 47.2697 55.125 48.1272 55.125 49ZM68.9062 49C68.9099 51.0798 68.5843 53.147 67.9416 55.125H57.8812C57.8812 54.6503 57.8812 54.1603 57.9884 53.5938C58.0956 53.0272 57.9884 52.8894 58.065 52.5372C58.065 51.3428 58.1875 50.1331 58.1875 48.9234V45.4016C58.1875 44.8044 58.1875 44.2072 58.0497 43.6253C58.0497 43.3038 58.0497 42.9975 57.9578 42.6759C57.9578 42.1247 57.8353 41.5887 57.7588 41.0528C57.7588 40.7466 57.7587 40.4403 57.6362 40.1494C57.6437 40.0117 57.6437 39.8737 57.6362 39.7359H66.8237C68.255 42.6108 68.9695 45.7892 68.9062 49Z" fill="#54A5FF"/>
<path d="M88.8125 10.7188V13.7812C88.8125 14.9996 88.3285 16.168 87.467 17.0295C86.6055 17.891 85.4371 18.375 84.2188 18.375C83.0004 18.375 81.832 17.891 80.9705 17.0295C80.109 16.168 79.625 14.9996 79.625 13.7812V10.7188C79.625 9.50041 80.109 8.33197 80.9705 7.47048C81.832 6.60898 83.0004 6.125 84.2188 6.125C85.4371 6.125 86.6055 6.60898 87.467 7.47048C88.3285 8.33197 88.8125 9.50041 88.8125 10.7188Z" fill="#60C1FE"/>
<path d="M91.875 24.5V29.0938C91.875 29.4999 91.7137 29.8893 91.4265 30.1765C91.1393 30.4637 90.7499 30.625 90.3438 30.625H78.0938C77.6876 30.625 77.2982 30.4637 77.011 30.1765C76.7238 29.8893 76.5625 29.4999 76.5625 29.0938V24.5C76.5625 22.8755 77.2078 21.3176 78.3565 20.169C79.5051 19.0203 81.063 18.375 82.6875 18.375H85.75C87.3745 18.375 88.9324 19.0203 90.081 20.169C91.2297 21.3176 91.875 22.8755 91.875 24.5Z" fill="#60C1FE"/>
<path d="M18.375 10.7188V13.7812C18.375 14.9996 17.891 16.168 17.0295 17.0295C16.168 17.891 14.9996 18.375 13.7812 18.375C12.5629 18.375 11.3945 17.891 10.533 17.0295C9.67148 16.168 9.1875 14.9996 9.1875 13.7812V10.7188C9.1875 9.50041 9.67148 8.33197 10.533 7.47048C11.3945 6.60898 12.5629 6.125 13.7812 6.125C14.9996 6.125 16.168 6.60898 17.0295 7.47048C17.891 8.33197 18.375 9.50041 18.375 10.7188Z" fill="#60C1FE"/>
<path d="M21.4375 24.5V30.625H6.125V24.5C6.125 22.8755 6.77031 21.3176 7.91897 20.169C9.06763 19.0203 10.6255 18.375 12.25 18.375H15.3125C16.937 18.375 18.4949 19.0203 19.6435 20.169C20.7922 21.3176 21.4375 22.8755 21.4375 24.5Z" fill="#60C1FE"/>
<path d="M88.8125 71.9688V75.0312C88.8125 76.2496 88.3285 77.418 87.467 78.2795C86.6055 79.141 85.4371 79.625 84.2188 79.625C83.0004 79.625 81.832 79.141 80.9705 78.2795C80.109 77.418 79.625 76.2496 79.625 75.0312V71.9688C79.625 70.7504 80.109 69.582 80.9705 68.7205C81.832 67.859 83.0004 67.375 84.2188 67.375C85.4371 67.375 86.6055 67.859 87.467 68.7205C88.3285 69.582 88.8125 70.7504 88.8125 71.9688Z" fill="#60C1FE"/>
<path d="M91.875 85.75V90.3438C91.875 90.7499 91.7137 91.1393 91.4265 91.4265C91.1393 91.7137 90.7499 91.875 90.3438 91.875H78.0938C77.6876 91.875 77.2982 91.7137 77.011 91.4265C76.7238 91.1393 76.5625 90.7499 76.5625 90.3438V85.75C76.5625 84.1255 77.2078 82.5676 78.3565 81.419C79.5051 80.2703 81.063 79.625 82.6875 79.625H85.75C87.3745 79.625 88.9324 80.2703 90.081 81.419C91.2297 82.5676 91.875 84.1255 91.875 85.75Z" fill="#60C1FE"/>
<path d="M18.375 71.9688V75.0312C18.375 76.2496 17.891 77.418 17.0295 78.2795C16.168 79.141 14.9996 79.625 13.7812 79.625C12.5629 79.625 11.3945 79.141 10.533 78.2795C9.67148 77.418 9.1875 76.2496 9.1875 75.0312V71.9688C9.1875 70.7504 9.67148 69.582 10.533 68.7205C11.3945 67.859 12.5629 67.375 13.7812 67.375C14.9996 67.375 16.168 67.859 17.0295 68.7205C17.891 69.582 18.375 70.7504 18.375 71.9688Z" fill="#60C1FE"/>
<path d="M21.4375 85.75V90.3438C21.4375 90.7499 21.2762 91.1393 20.989 91.4265C20.7018 91.7137 20.3124 91.875 19.9062 91.875H7.65625C7.25014 91.875 6.86066 91.7137 6.57349 91.4265C6.28633 91.1393 6.125 90.7499 6.125 90.3438V85.75C6.125 84.1255 6.77031 82.5676 7.91897 81.419C9.06763 80.2703 10.6255 79.625 12.25 79.625H15.3125C16.937 79.625 18.4949 80.2703 19.6435 81.419C20.7922 82.5676 21.4375 84.1255 21.4375 85.75Z" fill="#60C1FE"/>
</svg>
