<svg width="98" height="98" viewBox="0 0 98 98" fill="none" xmlns="http://www.w3.org/2000/svg">
<path d="M91.875 58.1875V64.3125C91.875 66.7492 90.907 69.0861 89.184 70.809C87.4611 72.532 85.1242 73.5 82.6875 73.5H15.3125C12.8758 73.5 10.5389 72.532 8.81596 70.809C7.09297 69.0861 6.125 66.7492 6.125 64.3125V58.1875H91.875Z" fill="#60C1FE"/>
<path d="M64.7565 91.875H33.2434L39.5522 73.5H58.4478L64.7565 91.875Z" fill="#4795EA"/>
<path d="M50.5312 67.375H47.4688C47.0626 67.375 46.6732 67.2137 46.386 66.9265C46.0988 66.6393 45.9375 66.2499 45.9375 65.8438C45.9375 65.4376 46.0988 65.0482 46.386 64.761C46.6732 64.4738 47.0626 64.3125 47.4688 64.3125H50.5312C50.9374 64.3125 51.3268 64.4738 51.614 64.761C51.9012 65.0482 52.0625 65.4376 52.0625 65.8438C52.0625 66.2499 51.9012 66.6393 51.614 66.9265C51.3268 67.2137 50.9374 67.375 50.5312 67.375Z" fill="url(#paint0_linear_20_431)"/>
<path d="M91.875 18.375V58.1875H6.125V18.375C6.125 15.9383 7.09297 13.6014 8.81596 11.8785C10.5389 10.1555 12.8758 9.1875 15.3125 9.1875H82.6875C85.1242 9.1875 87.4611 10.1555 89.184 11.8785C90.907 13.6014 91.875 15.9383 91.875 18.375Z" fill="url(#paint1_linear_20_431)"/>
<path d="M42.875 44.4062H55.125V47.4688C55.125 48.281 54.8023 49.0599 54.228 49.6343C53.6537 50.2086 52.8747 50.5312 52.0625 50.5312H45.9375C45.1253 50.5312 44.3463 50.2086 43.772 49.6343C43.1977 49.0599 42.875 48.281 42.875 47.4688V44.4062Z" fill="#EB7F58"/>
<path d="M61.25 24.5V40.7466C61.3255 42.0432 60.8847 43.317 60.0239 44.2896C59.1632 45.2623 57.9524 45.8547 56.6563 45.9375H41.3438C40.0476 45.8547 38.8368 45.2623 37.9761 44.2896C37.1153 43.317 36.6745 42.0432 36.75 40.7466V24.5C36.7112 20.6083 38.2141 16.8594 40.9303 14.0722L49 6.125L57.0697 14.1028C59.7785 16.8825 61.2807 20.6189 61.25 24.5Z" fill="#FE9661"/>
<path d="M36.75 30.625V41.3438H29.7216C29.4188 41.3425 29.1231 41.2514 28.872 41.0821C28.6209 40.9128 28.4256 40.6729 28.3109 40.3926C28.1962 40.1123 28.1671 39.8044 28.2274 39.5076C28.2878 39.2108 28.4347 38.9386 28.6497 38.7253L36.75 30.625ZM68.6 41.3438H61.25V29.0938L69.7485 38.8019C69.9427 39.023 70.0691 39.2953 70.1126 39.5863C70.156 39.8774 70.1147 40.1748 69.9935 40.443C69.8724 40.7111 69.6765 40.9387 69.4294 41.0985C69.1822 41.2582 68.8943 41.3434 68.6 41.3438Z" fill="#FE9661"/>
<path d="M49 38.2812C51.5371 38.2812 53.5938 36.2246 53.5938 33.6875C53.5938 31.1504 51.5371 29.0938 49 29.0938C46.4629 29.0938 44.4062 31.1504 44.4062 33.6875C44.4062 36.2246 46.4629 38.2812 49 38.2812Z" fill="#D7E9F7"/>
<path d="M49 21.4375C50.6914 21.4375 52.0625 20.0664 52.0625 18.375C52.0625 16.6836 50.6914 15.3125 49 15.3125C47.3086 15.3125 45.9375 16.6836 45.9375 18.375C45.9375 20.0664 47.3086 21.4375 49 21.4375Z" fill="url(#paint2_linear_20_431)"/>
<path d="M67.375 91.875H30.625C30.2189 91.875 29.8294 91.7137 29.5422 91.4265C29.2551 91.1393 29.0938 90.7499 29.0938 90.3438C29.0938 89.9376 29.2551 89.5482 29.5422 89.261C29.8294 88.9738 30.2189 88.8125 30.625 88.8125H67.375C67.7811 88.8125 68.1706 88.9738 68.4578 89.261C68.7449 89.5482 68.9062 89.9376 68.9062 90.3438C68.9062 90.7499 68.7449 91.1393 68.4578 91.4265C68.1706 91.7137 67.7811 91.875 67.375 91.875Z" fill="#0668CB"/>
<defs>
<linearGradient id="paint0_linear_20_431" x1="45.9375" y1="65.8438" x2="52.0625" y2="65.8438" gradientUnits="userSpaceOnUse">
<stop stop-color="#D3E6F5"/>
<stop offset="1" stop-color="#F0F7FC"/>
</linearGradient>
<linearGradient id="paint1_linear_20_431" x1="16.66" y1="68.7225" x2="81.34" y2="4.0425" gradientUnits="userSpaceOnUse">
<stop stop-color="#D3E6F5"/>
<stop offset="1" stop-color="#F0F7FC"/>
</linearGradient>
<linearGradient id="paint2_linear_20_431" x1="0" y1="18.375" x2="1.53125" y2="18.375" gradientUnits="userSpaceOnUse">
<stop stop-color="#D3E6F5"/>
<stop offset="1" stop-color="#F0F7FC"/>
</linearGradient>
</defs>
</svg>
