<svg width="98" height="98" viewBox="0 0 98 98" fill="none" xmlns="http://www.w3.org/2000/svg">
<path d="M75.5417 87.792H22.4584V95.9587H75.5417V87.792Z" fill="url(#paint0_linear_20_472)"/>
<path d="M36.75 81.6667V87.7917H22.4583V95.9583H2.04164V78.0121C2.03865 75.9931 2.53474 74.0046 3.4858 72.2236C4.43685 70.4426 5.81336 68.9243 7.49289 67.8038L8.16664 67.375H15.68C16.4792 67.3739 17.2612 67.6075 17.9289 68.0466C18.5967 68.4857 19.1209 69.1112 19.4366 69.8454L24.5 81.6667H36.75Z" fill="#54A5FF"/>
<path d="M36.75 81.6667V87.7917H22.4583V95.9583H2.04164V78.0121C2.03865 75.9931 2.53474 74.0046 3.4858 72.2236C4.43685 70.4426 5.81336 68.9243 7.49289 67.8038L8.16664 67.375H15.68C16.4792 67.3739 17.2612 67.6075 17.9289 68.0466C18.5967 68.4857 19.1209 69.1112 19.4366 69.8454L24.5 81.6667H36.75Z" fill="#54A5FF"/>
<path d="M8.16663 67.3753H18.375C18.9164 67.3753 19.4357 67.1602 19.8186 66.7773C20.2015 66.3945 20.4166 65.8751 20.4166 65.3337V61.2503H24.5L22.4583 51.042H8.16663V67.3753Z" fill="url(#paint1_linear_20_472)"/>
<path d="M22.4583 87.7916V91.8749C20.2941 91.8749 19.5795 92.0179 18.8445 91.1399L8.6362 78.8899C8.4646 78.6835 8.33535 78.4453 8.25582 78.1889C8.1763 77.9325 8.14805 77.6629 8.1727 77.3956C8.19734 77.1283 8.2744 76.8684 8.39947 76.6309C8.52454 76.3934 8.69516 76.1828 8.90161 76.0112C9.10806 75.8396 9.34629 75.7103 9.60269 75.6308C9.85909 75.5513 10.1286 75.5231 10.396 75.5477C10.6633 75.5723 10.9231 75.6494 11.1607 75.7745C11.3982 75.8995 11.6088 76.0702 11.7804 76.2766L21.3762 87.7916H22.4583Z" fill="#4795EA"/>
<path d="M26.5416 42.875V46.2642C26.5416 47.5312 26.0383 48.7464 25.1423 49.6424C24.2464 50.5383 23.0312 51.0417 21.7641 51.0417H15.435C14.8134 51.0414 14.1999 51.183 13.6414 51.4557C13.0828 51.7284 12.5939 52.1251 12.2119 52.6154C11.8299 53.1057 11.5649 53.6768 11.437 54.2851C11.3091 54.8933 11.3218 55.5228 11.4741 56.1254L12.25 59.2083H8.16663V67.375C6.54218 67.375 4.98426 66.7297 3.8356 65.581C2.68694 64.4324 2.04163 62.8745 2.04163 61.25V51.0417C2.04163 48.8757 2.90204 46.7985 4.43359 45.267C5.96513 43.7354 8.04236 42.875 10.2083 42.875H26.5416Z" fill="#FE9661"/>
<path d="M44.9167 6.125H77.5833C78.1248 6.125 78.6441 6.3401 79.027 6.72299C79.4099 7.10588 79.625 7.62518 79.625 8.16667V32.6667C79.625 33.2082 79.4099 33.7275 79.027 34.1103C78.6441 34.4932 78.1248 34.7083 77.5833 34.7083H72.7242L71.2337 37.6688C71.0624 38.0032 70.8021 38.2838 70.4815 38.4798C70.1609 38.6758 69.7924 38.7795 69.4167 38.7795C69.0409 38.7795 68.6724 38.6758 68.3518 38.4798C68.0312 38.2838 67.7709 38.0032 67.5996 37.6688L66.1092 34.7083H44.9167C44.3752 34.7083 43.8559 34.4932 43.473 34.1103C43.0901 33.7275 42.875 33.2082 42.875 32.6667V8.16667C42.875 7.62518 43.0901 7.10588 43.473 6.72299C43.8559 6.3401 44.3752 6.125 44.9167 6.125Z" fill="#54A5FF"/>
<path d="M51.0417 14.2913H71.4583C71.9998 14.2913 72.5191 14.0762 72.902 13.6934C73.2849 13.3105 73.5 12.7912 73.5 12.2497C73.5 11.7082 73.2849 11.1889 72.902 10.806C72.5191 10.4231 71.9998 10.208 71.4583 10.208H51.0417C50.5002 10.208 49.9809 10.4231 49.598 10.806C49.2151 11.1889 49 11.7082 49 12.2497C49 12.7912 49.2151 13.3105 49.598 13.6934C49.9809 14.0762 50.5002 14.2913 51.0417 14.2913ZM51.0417 22.458H71.4583C71.9998 22.458 72.5191 22.2429 72.902 21.86C73.2849 21.4771 73.5 20.9578 73.5 20.4163C73.5 19.8749 73.2849 19.3556 72.902 18.9727C72.5191 18.5898 71.9998 18.3747 71.4583 18.3747H51.0417C50.5002 18.3747 49.9809 18.5898 49.598 18.9727C49.2151 19.3556 49 19.8749 49 20.4163C49 20.9578 49.2151 21.4771 49.598 21.86C49.9809 22.2429 50.5002 22.458 51.0417 22.458ZM63.2917 30.6247H71.4583C71.9998 30.6247 72.5191 30.4096 72.902 30.0267C73.2849 29.6438 73.5 29.1245 73.5 28.583C73.5 28.0415 73.2849 27.5222 72.902 27.1393C72.5191 26.7564 71.9998 26.5413 71.4583 26.5413H63.2917C62.7502 26.5413 62.2309 26.7564 61.848 27.1393C61.4651 27.5222 61.25 28.0415 61.25 28.583C61.25 29.1245 61.4651 29.6438 61.848 30.0267C62.2309 30.4096 62.7502 30.6247 63.2917 30.6247Z" fill="white"/>
<path d="M53.0833 2.04199H20.4167C19.8752 2.04199 19.3559 2.2571 18.973 2.63998C18.5901 3.02287 18.375 3.54218 18.375 4.08366V28.5837C18.375 29.1251 18.5901 29.6444 18.973 30.0273C19.3559 30.4102 19.8752 30.6253 20.4167 30.6253H25.2758L26.7662 33.5857C26.9376 33.9202 27.1979 34.2008 27.5185 34.3968C27.8391 34.5928 28.2076 34.6965 28.5833 34.6965C28.9591 34.6965 29.3276 34.5928 29.6482 34.3968C29.9688 34.2008 30.2291 33.9202 30.4004 33.5857L31.8908 30.6253H53.0833C53.6248 30.6253 54.1441 30.4102 54.527 30.0273C54.9099 29.6444 55.125 29.1251 55.125 28.5837V4.08366C55.125 3.54218 54.9099 3.02287 54.527 2.63998C54.1441 2.2571 53.6248 2.04199 53.0833 2.04199Z" fill="#FE9661"/>
<path d="M46.9583 10.2083H26.5417C26.0002 10.2083 25.4809 9.99323 25.098 9.61034C24.7151 9.22746 24.5 8.70815 24.5 8.16667C24.5 7.62518 24.7151 7.10588 25.098 6.72299C25.4809 6.3401 26.0002 6.125 26.5417 6.125H46.9583C47.4998 6.125 48.0191 6.3401 48.402 6.72299C48.7849 7.10588 49 7.62518 49 8.16667C49 8.70815 48.7849 9.22746 48.402 9.61034C48.0191 9.99323 47.4998 10.2083 46.9583 10.2083ZM46.9583 18.375H26.5417C26.0002 18.375 25.4809 18.1599 25.098 17.777C24.7151 17.3941 24.5 16.8748 24.5 16.3333C24.5 15.7918 24.7151 15.2725 25.098 14.8897C25.4809 14.5068 26.0002 14.2917 26.5417 14.2917H46.9583C47.4998 14.2917 48.0191 14.5068 48.402 14.8897C48.7849 15.2725 49 15.7918 49 16.3333C49 16.8748 48.7849 17.3941 48.402 17.777C48.0191 18.1599 47.4998 18.375 46.9583 18.375ZM34.7083 26.5417H26.5417C26.0002 26.5417 25.4809 26.3266 25.098 25.9437C24.7151 25.5608 24.5 25.0415 24.5 24.5C24.5 23.9585 24.7151 23.4392 25.098 23.0563C25.4809 22.6734 26.0002 22.4583 26.5417 22.4583H34.7083C35.2498 22.4583 35.7691 22.6734 36.152 23.0563C36.5349 23.4392 36.75 23.9585 36.75 24.5C36.75 25.0415 36.5349 25.5608 36.152 25.9437C35.7691 26.3266 35.2498 26.5417 34.7083 26.5417Z" fill="#F0F7FC"/>
<path d="M44.9167 87.792H36.75V81.667H38.7917C40.4161 81.667 41.974 82.3123 43.1227 83.461C44.2714 84.6096 44.9167 86.1675 44.9167 87.792Z" fill="#D7E9F7"/>
<path d="M61.25 81.6667V87.7917H75.5417V95.9583H95.9583V78.0121C95.9613 75.9931 95.4652 74.0046 94.5142 72.2236C93.5631 70.4426 92.1866 68.9243 90.5071 67.8038L89.8333 67.375H82.32C81.5208 67.3739 80.7388 67.6075 80.071 68.0466C79.4033 68.4857 78.879 69.1112 78.5633 69.8454L73.5 81.6667H61.25Z" fill="#54A5FF"/>
<path d="M61.25 81.6667V87.7917H75.5417V95.9583H95.9583V78.0121C95.9613 75.9931 95.4652 74.0046 94.5142 72.2236C93.5631 70.4426 92.1866 68.9243 90.5071 67.8038L89.8333 67.375H82.32C81.5208 67.3739 80.7388 67.6075 80.071 68.0466C79.4033 68.4857 78.879 69.1112 78.5633 69.8454L73.5 81.6667H61.25Z" fill="#FE9661"/>
<path d="M89.8333 67.3753H79.625C79.0835 67.3753 78.5642 67.1602 78.1813 66.7773C77.7984 66.3945 77.5833 65.8751 77.5833 65.3337V61.2503H73.5L75.5417 51.042H89.8333V67.3753Z" fill="url(#paint2_linear_20_472)"/>
<path d="M75.5416 87.7916V91.8749C77.7058 91.8749 78.4204 92.0179 79.1554 91.1399L89.3637 78.8899C89.5353 78.6835 89.6646 78.4453 89.7441 78.1889C89.8236 77.9325 89.8519 77.6629 89.8272 77.3956C89.8026 77.1283 89.7255 76.8684 89.6004 76.6309C89.4754 76.3934 89.3047 76.1828 89.0983 76.0112C88.8918 75.8396 88.6536 75.7103 88.3972 75.6308C88.1408 75.5513 87.8713 75.5231 87.604 75.5477C87.3366 75.5723 87.0768 75.6494 86.8393 75.7745C86.6017 75.8995 86.3911 76.0702 86.2195 76.2766L76.6237 87.7916H75.5416Z" fill="#EB7F58"/>
<path d="M71.4584 46.9583C71.4584 48.0413 71.8886 49.0799 72.6544 49.8457C73.4201 50.6115 74.4587 51.0417 75.5417 51.0417H82.565C83.1866 51.0414 83.8001 51.183 84.3586 51.4557C84.9171 51.7284 85.4061 52.1251 85.7881 52.6154C86.1701 53.1057 86.4351 53.6768 86.563 54.2851C86.6909 54.8933 86.6782 55.5228 86.5259 56.1254L85.75 59.2083H89.8334V67.375C91.4578 67.375 93.0157 66.7297 94.1644 65.581C95.3131 64.4324 95.9584 62.8745 95.9584 61.25V51.0417C95.9584 48.8757 95.098 46.7985 93.5664 45.267C92.0349 43.7354 89.9576 42.875 87.7917 42.875H75.5417C74.4587 42.875 73.4201 43.3052 72.6544 44.071C71.8886 44.8368 71.4584 45.8754 71.4584 46.9583Z" fill="#54A5FF"/>
<path d="M53.0834 87.792H61.25V81.667H59.2084C57.5839 81.667 56.026 82.3123 54.8773 83.461C53.7287 84.6096 53.0834 86.1675 53.0834 87.792Z" fill="#D7E9F7"/>
<defs>
<linearGradient id="paint0_linear_20_472" x1="49" y1="95.9587" x2="49" y2="87.792" gradientUnits="userSpaceOnUse">
<stop stop-color="#D3E6F5"/>
<stop offset="1" stop-color="#F0F7FC"/>
</linearGradient>
<linearGradient id="paint1_linear_20_472" x1="16.3333" y1="67.3753" x2="16.3333" y2="51.042" gradientUnits="userSpaceOnUse">
<stop stop-color="#D3E6F5"/>
<stop offset="1" stop-color="#F0F7FC"/>
</linearGradient>
<linearGradient id="paint2_linear_20_472" x1="81.6667" y1="67.3753" x2="81.6667" y2="51.042" gradientUnits="userSpaceOnUse">
<stop stop-color="#D3E6F5"/>
<stop offset="1" stop-color="#F0F7FC"/>
</linearGradient>
</defs>
</svg>
