<svg width="98" height="98" viewBox="0 0 98 98" fill="none" xmlns="http://www.w3.org/2000/svg">
<path d="M91.875 61.25V67.375C91.875 69.8117 90.907 72.1486 89.184 73.8715C87.4611 75.5945 85.1242 76.5625 82.6875 76.5625H15.3125C12.8758 76.5625 10.5389 75.5945 8.81596 73.8715C7.09297 72.1486 6.125 69.8117 6.125 67.375V61.25H91.875Z" fill="#60C1FE"/>
<path d="M91.8749 18.375V61.25H6.12492V18.375C6.09428 16.1818 6.8493 14.05 8.25349 12.365C9.65768 10.6799 11.6184 9.55286 13.7812 9.1875H84.2187C86.3815 9.55286 88.3422 10.6799 89.7464 12.365C91.1505 14.05 91.9056 16.1818 91.8749 18.375Z" fill="url(#paint0_linear_5_357)"/>
<path d="M64.7564 94.8613H33.2433L39.552 76.4863H58.4477L64.7564 94.8613Z" fill="#4795EA"/>
<path d="M67.375 94.9375H30.625C30.2189 94.9375 29.8294 94.7762 29.5422 94.489C29.2551 94.2018 29.0938 93.8124 29.0938 93.4062C29.0938 93.0001 29.2551 92.6107 29.5422 92.3235C29.8294 92.0363 30.2189 91.875 30.625 91.875H67.375C67.7811 91.875 68.1706 92.0363 68.4578 92.3235C68.7449 92.6107 68.9062 93.0001 68.9062 93.4062C68.9062 93.8124 68.7449 94.2018 68.4578 94.489C68.1706 94.7762 67.7811 94.9375 67.375 94.9375Z" fill="#0668CB"/>
<path d="M50.5312 70.4375H47.4688C47.0626 70.4375 46.6732 70.2762 46.386 69.989C46.0988 69.7018 45.9375 69.3124 45.9375 68.9062C45.9375 68.5001 46.0988 68.1107 46.386 67.8235C46.6732 67.5363 47.0626 67.375 47.4688 67.375H50.5312C50.9374 67.375 51.3268 67.5363 51.614 67.8235C51.9012 68.1107 52.0625 68.5001 52.0625 68.9062C52.0625 69.3124 51.9012 69.7018 51.614 69.989C51.3268 70.2762 50.9374 70.4375 50.5312 70.4375Z" fill="url(#paint1_linear_5_357)"/>
<path d="M84.2188 6.125V18.375H13.7812V6.125C13.7812 5.31277 14.1039 4.53382 14.6782 3.95949C15.2526 3.38516 16.0315 3.0625 16.8438 3.0625H81.1562C81.9685 3.0625 82.7474 3.38516 83.3218 3.95949C83.8961 4.53382 84.2188 5.31277 84.2188 6.125Z" fill="#60C1FE"/>
<path d="M84.2188 18.375V50.5312C84.2188 51.3435 83.8961 52.1224 83.3218 52.6968C82.7474 53.2711 81.9685 53.5938 81.1562 53.5938H16.8438C16.0315 53.5938 15.2526 53.2711 14.6782 52.6968C14.1039 52.1224 13.7812 51.3435 13.7812 50.5312V18.375H84.2188Z" fill="#F0F7FC"/>
<path d="M75.0313 13.7813C74.4255 13.7813 73.8334 13.6016 73.3298 13.2651C72.8262 12.9286 72.4337 12.4503 72.2019 11.8907C71.9701 11.3311 71.9094 10.7154 72.0276 10.1213C72.1458 9.52722 72.4374 8.98154 72.8657 8.55324C73.294 8.12494 73.8397 7.83326 74.4338 7.7151C75.0279 7.59693 75.6436 7.65758 76.2032 7.88937C76.7628 8.12116 77.2411 8.51369 77.5776 9.01732C77.9141 9.52094 78.0938 10.113 78.0938 10.7188C78.0938 11.531 77.7711 12.3099 77.1968 12.8843C76.6224 13.4586 75.8435 13.7813 75.0313 13.7813Z" fill="#D7E9F7"/>
<path d="M65.8438 13.7813C65.238 13.7813 64.6459 13.6016 64.1423 13.2651C63.6387 12.9286 63.2462 12.4503 63.0144 11.8907C62.7826 11.3311 62.7219 10.7154 62.8401 10.1213C62.9583 9.52722 63.2499 8.98154 63.6782 8.55324C64.1065 8.12494 64.6522 7.83326 65.2463 7.7151C65.8404 7.59693 66.4561 7.65758 67.0157 7.88937C67.5753 8.12116 68.0536 8.51369 68.3901 9.01732C68.7266 9.52094 68.9063 10.113 68.9063 10.7188C68.9063 11.531 68.5836 12.3099 68.0093 12.8843C67.4349 13.4586 66.656 13.7813 65.8438 13.7813Z" fill="#4795EA"/>
<path d="M56.6563 13.7813C56.0505 13.7813 55.4584 13.6016 54.9548 13.2651C54.4512 12.9286 54.0587 12.4503 53.8269 11.8907C53.5951 11.3311 53.5344 10.7154 53.6526 10.1213C53.7708 9.52722 54.0624 8.98154 54.4907 8.55324C54.919 8.12494 55.4647 7.83326 56.0588 7.7151C56.6529 7.59693 57.2686 7.65758 57.8282 7.88937C58.3878 8.12116 58.8661 8.51369 59.2026 9.01732C59.5391 9.52094 59.7188 10.113 59.7188 10.7188C59.7188 11.531 59.3961 12.3099 58.8218 12.8843C58.2474 13.4586 57.4685 13.7813 56.6563 13.7813Z" fill="#EB7F58"/>
<path d="M47.4688 12.25H21.4375C21.0314 12.25 20.6419 12.0887 20.3547 11.8015C20.0676 11.5143 19.9062 11.1249 19.9062 10.7188C19.9062 10.3126 20.0676 9.92316 20.3547 9.63599C20.6419 9.34883 21.0314 9.1875 21.4375 9.1875H47.4688C47.8749 9.1875 48.2643 9.34883 48.5515 9.63599C48.8387 9.92316 49 10.3126 49 10.7188C49 11.1249 48.8387 11.5143 48.5515 11.8015C48.2643 12.0887 47.8749 12.25 47.4688 12.25Z" fill="#4795EA"/>
<path d="M22.9687 42.8748C22.7164 42.8735 22.4685 42.8099 22.2467 42.6897C22.025 42.5695 21.8364 42.3964 21.6977 42.1858L18.6352 37.592C18.4706 37.342 18.3828 37.0492 18.3828 36.7498C18.3828 36.4505 18.4706 36.1577 18.6352 35.9076L21.6977 31.3139C21.9371 31.0168 22.2787 30.8197 22.6557 30.7613C23.0327 30.7028 23.418 30.7873 23.736 30.998C24.0541 31.2088 24.282 31.5307 24.3751 31.9006C24.4683 32.2706 24.4199 32.6621 24.2396 32.9983L21.7437 36.7498L24.2396 40.5014C24.4612 40.839 24.5405 41.2504 24.4602 41.6462C24.3799 42.042 24.1465 42.39 23.8108 42.6145C23.5642 42.7872 23.2697 42.8783 22.9687 42.8748ZM35.2187 42.8748C34.9176 42.8783 34.6231 42.7872 34.3765 42.6145C34.0408 42.39 33.8074 42.042 33.7271 41.6462C33.6468 41.2504 33.7261 40.839 33.9477 40.5014L36.4437 36.7498L33.9477 32.9983C33.8141 32.8323 33.7165 32.6404 33.6613 32.4346C33.6061 32.2288 33.5944 32.0138 33.627 31.8032C33.6597 31.5927 33.7359 31.3912 33.8508 31.2118C33.9657 31.0324 34.1168 30.879 34.2944 30.7613C34.472 30.6436 34.6722 30.5643 34.8822 30.5284C35.0922 30.4925 35.3074 30.5008 35.514 30.5528C35.7206 30.6048 35.9141 30.6994 36.0821 30.8304C36.2501 30.9615 36.3889 31.1261 36.4896 31.3139L39.5521 35.9076C39.7167 36.1577 39.8045 36.4505 39.8045 36.7498C39.8045 37.0492 39.7167 37.342 39.5521 37.592L36.4896 42.1858C36.3509 42.3964 36.1623 42.5695 35.9406 42.6897C35.7188 42.8099 35.4709 42.8735 35.2187 42.8748ZM27.5624 44.207C27.4352 44.222 27.3068 44.222 27.1796 44.207C26.9752 44.1627 26.7821 44.0769 26.6121 43.955C26.4421 43.8332 26.2989 43.6778 26.1913 43.4984C26.0837 43.3191 26.014 43.1196 25.9864 42.9123C25.9589 42.7049 25.9741 42.4942 26.0312 42.293L29.0937 30.4411C29.1952 30.0472 29.449 29.7097 29.7994 29.5029C30.1497 29.2962 30.5678 29.2371 30.9618 29.3386C31.3557 29.4401 31.6932 29.694 31.8999 30.0443C32.1067 30.3947 32.1658 30.8128 32.0643 31.2067L29.0018 43.0586C28.9189 43.3802 28.7336 43.6662 28.474 43.8733C28.2144 44.0805 27.8944 44.1976 27.5624 44.207Z" fill="#B4CDE1"/>
<path d="M61.2499 47.4692H48.9999C48.189 47.4658 47.4125 47.1409 46.8408 46.5658L52.4758 40.9308C52.7957 40.6096 53.1829 40.3634 53.6096 40.21C54.0362 40.0566 54.4915 39.9998 54.9427 40.0437C55.3939 40.0877 55.8298 40.2313 56.2187 40.4641C56.6077 40.6969 56.9402 41.0132 57.1921 41.3902L58.1874 42.8755L61.2499 47.4692Z" fill="#4795EA"/>
<path d="M78.0938 29.0938V44.4062C78.0976 44.7954 78.0237 45.1814 77.8765 45.5416C77.7292 45.9018 77.5116 46.229 77.2362 46.5041L68.2019 36.3519C67.9091 36.0307 67.5513 35.7756 67.1523 35.6034C66.7533 35.4312 66.3222 35.3459 65.8877 35.3531C65.4532 35.3603 65.0252 35.46 64.6322 35.6454C64.2391 35.8308 63.89 36.0977 63.6081 36.4284L58.1875 42.875L57.1922 41.3438C56.9403 40.9668 56.6078 40.6505 56.2189 40.4177C55.8299 40.1848 55.394 40.0413 54.9428 39.9973C54.4916 39.9534 54.0363 40.0101 53.6097 40.1635C53.1831 40.3169 52.7958 40.5631 52.4759 40.8844L46.8409 46.5194C46.2769 45.959 45.9529 45.2012 45.9375 44.4062V29.0938C45.9375 28.2815 46.2602 27.5026 46.8345 26.9282C47.4088 26.3539 48.1878 26.0312 49 26.0312H75.0312C75.8435 26.0312 76.6224 26.3539 77.1968 26.9282C77.7711 27.5026 78.0938 28.2815 78.0938 29.0938Z" fill="#60C1FE"/>
<path d="M77.2362 46.5049C76.957 46.8114 76.6163 47.0557 76.2364 47.2219C75.8565 47.3881 75.4459 47.4725 75.0312 47.4696H61.25L58.1875 42.8758L63.5622 36.4293C63.8441 36.0986 64.1932 35.8316 64.5862 35.6462C64.9793 35.4608 65.4073 35.3612 65.8418 35.3539C66.2763 35.3467 66.7074 35.432 67.1064 35.6042C67.5054 35.7764 67.8631 36.0316 68.1559 36.3527L77.2362 46.5049Z" fill="#4795EA"/>
<path d="M55.125 36.75C54.5193 36.75 53.9272 36.5704 53.4236 36.2339C52.9199 35.8974 52.5274 35.4191 52.2956 34.8595C52.0638 34.2999 52.0032 33.6841 52.1213 33.09C52.2395 32.496 52.5312 31.9503 52.9595 31.522C53.3878 31.0937 53.9335 30.802 54.5275 30.6838C55.1216 30.5657 55.7374 30.6263 56.297 30.8581C56.8566 31.0899 57.3349 31.4824 57.6714 31.9861C58.0079 32.4897 58.1875 33.0818 58.1875 33.6875C58.1875 34.4997 57.8648 35.2787 57.2905 35.853C56.7162 36.4273 55.9372 36.75 55.125 36.75Z" fill="#F0F7FC"/>
<defs>
<linearGradient id="paint0_linear_5_357" x1="48.9999" y1="61.1888" x2="48.9999" y2="9.24875" gradientUnits="userSpaceOnUse">
<stop stop-color="#D3E6F5"/>
<stop offset="1" stop-color="#F0F7FC"/>
</linearGradient>
<linearGradient id="paint1_linear_5_357" x1="45.9375" y1="68.845" x2="52.0625" y2="68.845" gradientUnits="userSpaceOnUse">
<stop stop-color="#D3E6F5"/>
<stop offset="1" stop-color="#F0F7FC"/>
</linearGradient>
</defs>
</svg>
