<svg width="98" height="98" viewBox="0 0 98 98" fill="none" xmlns="http://www.w3.org/2000/svg">
<path d="M22.9688 75.0314V14.7001C22.9849 12.4123 23.9083 10.2244 25.5361 8.61669C27.1639 7.00899 29.3631 6.1129 31.6509 6.12512H67.375C69.4056 6.12512 71.353 6.93176 72.7888 8.36759C74.2246 9.80341 75.0312 11.7508 75.0312 13.7814V75.0314H22.9688Z" fill="#F0F7FC"/>
<path d="M75.0312 65.8438C74.6251 65.8438 74.2357 66.0051 73.9485 66.2922C73.6613 66.5794 73.5 66.9689 73.5 67.375V73.5H24.5V41.3438C24.5 40.9376 24.3387 40.5482 24.0515 40.261C23.7643 39.9738 23.3749 39.8125 22.9688 39.8125C22.5626 39.8125 22.1732 39.9738 21.886 40.261C21.5988 40.5482 21.4375 40.9376 21.4375 41.3438V83.3C21.4537 85.9939 22.5384 88.5713 24.4533 90.4662C26.3683 92.361 28.957 93.4185 31.6509 93.4062H66.3491C69.043 93.4185 71.6317 92.361 73.5467 90.4662C75.4616 88.5713 76.5463 85.9939 76.5625 83.3V67.375C76.5625 66.9689 76.4012 66.5794 76.114 66.2922C75.8268 66.0051 75.4374 65.8438 75.0312 65.8438Z" fill="#60C1FE"/>
<path d="M67.375 4.59385H31.6509C28.957 4.58163 26.3683 5.63906 24.4533 7.53392C22.5384 9.42878 21.4537 12.0062 21.4375 14.7001V22.9689C21.4375 23.375 21.5988 23.7644 21.886 24.0516C22.1732 24.3388 22.5626 24.5001 22.9688 24.5001C23.3749 24.5001 23.7643 24.3388 24.0515 24.0516C24.3387 23.7644 24.5 23.375 24.5 22.9689V14.7001C24.5162 12.8184 25.2782 11.02 26.6188 9.69942C27.9595 8.37888 29.7692 7.64412 31.6509 7.65635H36.75V12.2501C36.75 13.4684 37.234 14.6369 38.0955 15.4984C38.957 16.3599 40.1254 16.8439 41.3438 16.8439H56.6562C57.8746 16.8439 59.043 16.3599 59.9045 15.4984C60.766 14.6369 61.25 13.4684 61.25 12.2501V7.65635H67.375C68.9995 7.65635 70.5574 8.30167 71.706 9.45033C72.8547 10.599 73.5 12.1569 73.5 13.7814V49.0001C73.5 49.4062 73.6613 49.7957 73.9485 50.0829C74.2357 50.37 74.6251 50.5314 75.0312 50.5314C75.4374 50.5314 75.8268 50.37 76.114 50.0829C76.4012 49.7957 76.5625 49.4062 76.5625 49.0001V13.7814C76.5625 11.3447 75.5945 9.0078 73.8715 7.28481C72.1486 5.56182 69.8117 4.59385 67.375 4.59385Z" fill="#60C1FE"/>
<path d="M52.0625 22.9688H9.1875C7.49613 22.9688 6.125 24.3399 6.125 26.0312V38.2812C6.125 39.9726 7.49613 41.3438 9.1875 41.3438H52.0625C53.7539 41.3438 55.125 39.9726 55.125 38.2812V26.0312C55.125 24.3399 53.7539 22.9688 52.0625 22.9688Z" fill="url(#paint0_linear_20_392)"/>
<path d="M88.8125 49H36.75C35.0586 49 33.6875 50.3711 33.6875 52.0625V64.3125C33.6875 66.0039 35.0586 67.375 36.75 67.375H88.8125C90.5039 67.375 91.875 66.0039 91.875 64.3125V52.0625C91.875 50.3711 90.5039 49 88.8125 49Z" fill="url(#paint1_linear_20_392)"/>
<path d="M26.0312 30.625H12.25C11.8439 30.625 11.4544 30.4637 11.1672 30.1765C10.8801 29.8893 10.7188 29.4999 10.7188 29.0938C10.7188 28.6876 10.8801 28.2982 11.1672 28.011C11.4544 27.7238 11.8439 27.5625 12.25 27.5625H26.0312C26.4374 27.5625 26.8268 27.7238 27.114 28.011C27.4012 28.2982 27.5625 28.6876 27.5625 29.0938C27.5625 29.4999 27.4012 29.8893 27.114 30.1765C26.8268 30.4637 26.4374 30.625 26.0312 30.625Z" fill="#6CDA9C"/>
<path d="M38.2812 36.75H12.25C11.8439 36.75 11.4544 36.5887 11.1672 36.3015C10.8801 36.0143 10.7188 35.6249 10.7188 35.2188C10.7188 34.8126 10.8801 34.4232 11.1672 34.136C11.4544 33.8488 11.8439 33.6875 12.25 33.6875H38.2812C38.6874 33.6875 39.0768 33.8488 39.364 34.136C39.6512 34.4232 39.8125 34.8126 39.8125 35.2188C39.8125 35.6249 39.6512 36.0143 39.364 36.3015C39.0768 36.5887 38.6874 36.75 38.2812 36.75Z" fill="#6CDA9C"/>
<path d="M53.5938 56.6562H39.8125C39.4064 56.6562 39.0169 56.4949 38.7297 56.2078C38.4426 55.9206 38.2812 55.5311 38.2812 55.125C38.2812 54.7189 38.4426 54.3294 38.7297 54.0422C39.0169 53.7551 39.4064 53.5938 39.8125 53.5938H53.5938C53.9999 53.5938 54.3893 53.7551 54.6765 54.0422C54.9637 54.3294 55.125 54.7189 55.125 55.125C55.125 55.5311 54.9637 55.9206 54.6765 56.2078C54.3893 56.4949 53.9999 56.6562 53.5938 56.6562Z" fill="#6CDA9C"/>
<path d="M62.7812 62.7812H39.8125C39.4064 62.7812 39.0169 62.6199 38.7297 62.3328C38.4426 62.0456 38.2812 61.6561 38.2812 61.25C38.2812 60.8439 38.4426 60.4544 38.7297 60.1672C39.0169 59.8801 39.4064 59.7188 39.8125 59.7188H62.7812C63.1874 59.7188 63.5768 59.8801 63.864 60.1672C64.1512 60.4544 64.3125 60.8439 64.3125 61.25C64.3125 61.6561 64.1512 62.0456 63.864 62.3328C63.5768 62.6199 63.1874 62.7812 62.7812 62.7812Z" fill="#6CDA9C"/>
<path d="M79.625 62.7812H68.9062C68.5001 62.7812 68.1107 62.6199 67.8235 62.3328C67.5363 62.0456 67.375 61.6561 67.375 61.25C67.375 60.8439 67.5363 60.4544 67.8235 60.1672C68.1107 59.8801 68.5001 59.7188 68.9062 59.7188H79.625C80.0311 59.7188 80.4206 59.8801 80.7078 60.1672C80.9949 60.4544 81.1562 60.8439 81.1562 61.25C81.1562 61.6561 80.9949 62.0456 80.7078 62.3328C80.4206 62.6199 80.0311 62.7812 79.625 62.7812Z" fill="#6CDA9C"/>
<path d="M68.9062 56.6562H59.7188C59.3126 56.6562 58.9232 56.4949 58.636 56.2078C58.3488 55.9206 58.1875 55.5311 58.1875 55.125C58.1875 54.7189 58.3488 54.3294 58.636 54.0422C58.9232 53.7551 59.3126 53.5938 59.7188 53.5938H68.9062C69.3124 53.5938 69.7018 53.7551 69.989 54.0422C70.2762 54.3294 70.4375 54.7189 70.4375 55.125C70.4375 55.5311 70.2762 55.9206 69.989 56.2078C69.7018 56.4949 69.3124 56.6562 68.9062 56.6562Z" fill="#6CDA9C"/>
<path d="M50.5312 84.2188H47.4688C47.0626 84.2188 46.6732 84.0574 46.386 83.7703C46.0988 83.4831 45.9375 83.0936 45.9375 82.6875C45.9375 82.2814 46.0988 81.8919 46.386 81.6047C46.6732 81.3176 47.0626 81.1562 47.4688 81.1562H50.5312C50.9374 81.1562 51.3268 81.3176 51.614 81.6047C51.9012 81.8919 52.0625 82.2814 52.0625 82.6875C52.0625 83.0936 51.9012 83.4831 51.614 83.7703C51.3268 84.0574 50.9374 84.2188 50.5312 84.2188Z" fill="#F0F7FC"/>
<defs>
<linearGradient id="paint0_linear_20_392" x1="30.625" y1="41.3438" x2="30.625" y2="22.9688" gradientUnits="userSpaceOnUse">
<stop stop-color="#D3E6F5"/>
<stop offset="1" stop-color="#F0F7FC"/>
</linearGradient>
<linearGradient id="paint1_linear_20_392" x1="44.5441" y1="76.4247" x2="81.0184" y2="39.9503" gradientUnits="userSpaceOnUse">
<stop stop-color="#D3E6F5"/>
<stop offset="1" stop-color="#F0F7FC"/>
</linearGradient>
</defs>
</svg>
