<svg width="98" height="98" viewBox="0 0 98 98" fill="none" xmlns="http://www.w3.org/2000/svg">
<path d="M34.9278 36.4595C34.7263 36.4606 34.5265 36.422 34.3399 36.3458C34.1534 36.2696 33.9837 36.1573 33.8406 36.0154L24.944 27.1188C24.8013 26.9761 24.688 26.8066 24.6107 26.62C24.5335 26.4335 24.4937 26.2336 24.4937 26.0317C24.4937 25.8297 24.5335 25.6298 24.6107 25.4433C24.688 25.2567 24.8013 25.0872 24.944 24.9445C25.0868 24.8017 25.2563 24.6884 25.4428 24.6112C25.6294 24.5339 25.8293 24.4941 26.0312 24.4941C26.2331 24.4941 26.4331 24.5339 26.6196 24.6112C26.8061 24.6884 26.9756 24.8017 27.1184 24.9445L36.015 33.841C36.1585 33.9834 36.2724 34.1527 36.3501 34.3393C36.4279 34.5259 36.4679 34.7261 36.4679 34.9282C36.4679 35.1304 36.4279 35.3305 36.3501 35.5171C36.2724 35.7037 36.1585 35.8731 36.015 36.0154C35.8719 36.1573 35.7022 36.2696 35.5156 36.3458C35.3291 36.422 35.1293 36.4606 34.9278 36.4595ZM63.0722 36.4595C62.8706 36.4606 62.6709 36.422 62.4843 36.3458C62.2977 36.2696 62.128 36.1573 61.985 36.0154C61.8414 35.8731 61.7275 35.7037 61.6498 35.5171C61.5721 35.3305 61.532 35.1304 61.532 34.9282C61.532 34.7261 61.5721 34.5259 61.6498 34.3393C61.7275 34.1527 61.8414 33.9834 61.985 33.841L70.8815 24.9445C71.1699 24.6561 71.5609 24.4941 71.9687 24.4941C72.3765 24.4941 72.7676 24.6561 73.0559 24.9445C73.3442 25.2328 73.5062 25.6239 73.5062 26.0317C73.5062 26.4394 73.3442 26.8305 73.0559 27.1188L64.1593 36.0154C64.0163 36.1573 63.8466 36.2696 63.66 36.3458C63.4734 36.422 63.2737 36.4606 63.0722 36.4595ZM26.0312 73.5004C25.8297 73.5016 25.6299 73.4629 25.4434 73.3867C25.2568 73.3105 25.0871 73.1983 24.944 73.0563C24.8005 72.914 24.6866 72.7446 24.6089 72.558C24.5311 72.3714 24.4911 72.1713 24.4911 71.9692C24.4911 71.767 24.5311 71.5669 24.6089 71.3803C24.6866 71.1937 24.8005 71.0243 24.944 70.882L33.8406 61.9854C33.9834 61.8426 34.1529 61.7294 34.3394 61.6521C34.5259 61.5748 34.7259 61.5351 34.9278 61.5351C35.1297 61.5351 35.3296 61.5748 35.5162 61.6521C35.7027 61.7294 35.8722 61.8426 36.015 61.9854C36.1577 62.1282 36.271 62.2977 36.3483 62.4842C36.4255 62.6708 36.4653 62.8707 36.4653 63.0726C36.4653 63.2745 36.4255 63.4744 36.3483 63.661C36.271 63.8475 36.1577 64.017 36.015 64.1598L27.1184 73.0563C26.9753 73.1983 26.8056 73.3105 26.6191 73.3867C26.4325 73.4629 26.2327 73.5016 26.0312 73.5004ZM71.9687 73.5004C71.7672 73.5016 71.5674 73.4629 71.3809 73.3867C71.1943 73.3105 71.0246 73.1983 70.8815 73.0563L61.985 64.1598C61.6966 63.8714 61.5346 63.4804 61.5346 63.0726C61.5346 62.6648 61.6966 62.2737 61.985 61.9854C62.2733 61.6971 62.6644 61.5351 63.0722 61.5351C63.4799 61.5351 63.871 61.6971 64.1593 61.9854L73.0559 70.882C73.1994 71.0243 73.3133 71.1937 73.3911 71.3803C73.4688 71.5669 73.5088 71.767 73.5088 71.9692C73.5088 72.1713 73.4688 72.3714 73.3911 72.558C73.3133 72.7446 73.1994 72.914 73.0559 73.0563C72.9128 73.1983 72.7431 73.3105 72.5566 73.3867C72.37 73.4629 72.1702 73.5016 71.9687 73.5004Z" fill="#9DB8D3"/>
<path d="M29.0938 50.5312H21.4375C21.0314 50.5312 20.6419 50.3699 20.3547 50.0828C20.0676 49.7956 19.9062 49.4061 19.9062 49C19.9062 48.5939 20.0676 48.2044 20.3547 47.9172C20.6419 47.6301 21.0314 47.4688 21.4375 47.4688H29.0938C29.4999 47.4688 29.8893 47.6301 30.1765 47.9172C30.4637 48.2044 30.625 48.5939 30.625 49C30.625 49.4061 30.4637 49.7956 30.1765 50.0828C29.8893 50.3699 29.4999 50.5312 29.0938 50.5312ZM76.5625 50.5312H68.9062C68.5001 50.5312 68.1107 50.3699 67.8235 50.0828C67.5363 49.7956 67.375 49.4061 67.375 49C67.375 48.5939 67.5363 48.2044 67.8235 47.9172C68.1107 47.6301 68.5001 47.4688 68.9062 47.4688H76.5625C76.9686 47.4688 77.3581 47.6301 77.6453 47.9172C77.9324 48.2044 78.0938 48.5939 78.0938 49C78.0938 49.4061 77.9324 49.7956 77.6453 50.0828C77.3581 50.3699 76.9686 50.5312 76.5625 50.5312ZM49 30.625C48.5939 30.625 48.2044 30.4637 47.9172 30.1765C47.6301 29.8893 47.4688 29.4999 47.4688 29.0938V21.4375C47.4688 21.0314 47.6301 20.6419 47.9172 20.3547C48.2044 20.0676 48.5939 19.9062 49 19.9062C49.4061 19.9062 49.7956 20.0676 50.0828 20.3547C50.3699 20.6419 50.5312 21.0314 50.5312 21.4375V29.0938C50.5312 29.4999 50.3699 29.8893 50.0828 30.1765C49.7956 30.4637 49.4061 30.625 49 30.625ZM49 78.0938C48.5939 78.0938 48.2044 77.9324 47.9172 77.6453C47.6301 77.3581 47.4688 76.9686 47.4688 76.5625V68.9062C47.4688 68.5001 47.6301 68.1107 47.9172 67.8235C48.2044 67.5363 48.5939 67.375 49 67.375C49.4061 67.375 49.7956 67.5363 50.0828 67.8235C50.3699 68.1107 50.5312 68.5001 50.5312 68.9062V76.5625C50.5312 76.9686 50.3699 77.3581 50.0828 77.6453C49.7956 77.9324 49.4061 78.0938 49 78.0938Z" fill="#B4CDE1"/>
<path d="M49 68.9062C59.9939 68.9062 68.9062 59.9939 68.9062 49C68.9062 38.0061 59.9939 29.0938 49 29.0938C38.0061 29.0938 29.0938 38.0061 29.0938 49C29.0938 59.9939 38.0061 68.9062 49 68.9062Z" fill="#60C1FE"/>
<path d="M18.375 29.0938C24.2948 29.0938 29.0938 24.2948 29.0938 18.375C29.0938 12.4552 24.2948 7.65625 18.375 7.65625C12.4552 7.65625 7.65625 12.4552 7.65625 18.375C7.65625 24.2948 12.4552 29.0938 18.375 29.0938Z" fill="#60C1FE"/>
<path d="M79.625 29.0938C85.5448 29.0938 90.3438 24.2948 90.3438 18.375C90.3438 12.4552 85.5448 7.65625 79.625 7.65625C73.7052 7.65625 68.9062 12.4552 68.9062 18.375C68.9062 24.2948 73.7052 29.0938 79.625 29.0938Z" fill="#60C1FE"/>
<path d="M18.375 90.3438C24.2948 90.3438 29.0938 85.5448 29.0938 79.625C29.0938 73.7052 24.2948 68.9062 18.375 68.9062C12.4552 68.9062 7.65625 73.7052 7.65625 79.625C7.65625 85.5448 12.4552 90.3438 18.375 90.3438Z" fill="#60C1FE"/>
<path d="M79.625 90.3438C85.5448 90.3438 90.3438 85.5448 90.3438 79.625C90.3438 73.7052 85.5448 68.9062 79.625 68.9062C73.7052 68.9062 68.9062 73.7052 68.9062 79.625C68.9062 85.5448 73.7052 90.3438 79.625 90.3438Z" fill="#60C1FE"/>
<path d="M56.1969 38.2815C56.1006 38.2655 56.0023 38.2655 55.9059 38.2815C55.6277 38.3158 55.3603 38.4102 55.1223 38.5583C54.8843 38.7064 54.6814 38.9046 54.5278 39.139C53.7731 40.2856 52.7458 41.2271 51.5379 41.8791C50.33 42.5312 48.9792 42.8734 47.6066 42.8753H45.9375V52.0628H47.6066C48.9764 52.0613 50.3254 52.3989 51.5331 53.0455C52.7407 53.692 53.7696 54.6275 54.5278 55.7684C54.6814 56.0029 54.8843 56.201 55.1223 56.3491C55.3603 56.4972 55.6277 56.5917 55.9059 56.6259C56.0023 56.6419 56.1006 56.6419 56.1969 56.6259C56.7196 56.626 57.2213 56.4204 57.5937 56.0537C57.9662 55.687 58.1795 55.1885 58.1875 54.6659V40.2721C58.1875 39.7442 57.9778 39.2379 57.6045 38.8646C57.2311 38.4913 56.7248 38.2815 56.1969 38.2815Z" fill="url(#paint0_linear_5_314)"/>
<path d="M45.9374 59.7182C45.6307 59.7185 45.331 59.6267 45.0771 59.4547C44.8232 59.2827 44.6268 59.0384 44.5134 58.7535L41.4509 51.0972C41.3764 50.9102 41.3396 50.7104 41.3424 50.5091C41.3453 50.3079 41.3877 50.1092 41.4673 49.9243C41.547 49.7395 41.6622 49.5721 41.8065 49.4318C41.9508 49.2915 42.1213 49.181 42.3083 49.1066C42.4954 49.0322 42.6952 48.9954 42.8964 48.9982C43.0977 49.001 43.2964 49.0435 43.4813 49.1231C43.6661 49.2027 43.8335 49.318 43.9738 49.4623C44.1141 49.6066 44.2246 49.7771 44.299 49.9641L47.3615 57.6204C47.4361 57.8074 47.473 58.0072 47.4703 58.2085C47.4676 58.4098 47.4252 58.6086 47.3455 58.7935C47.2659 58.9784 47.1506 59.1458 47.0061 59.286C46.8617 59.4263 46.6911 59.5367 46.504 59.611C46.3236 59.6823 46.1314 59.7186 45.9374 59.7182Z" fill="#D7E9F7"/>
<path d="M32.8453 7.65625C32.7258 7.38234 32.5287 7.1494 32.2784 6.98615C32.028 6.82289 31.7354 6.73646 31.4366 6.7375C31.2261 6.73582 31.0176 6.77752 30.8241 6.86C30.5075 7.00414 30.2494 7.25175 30.0924 7.5621C29.9353 7.87244 29.8885 8.22702 29.9598 8.56747C30.0311 8.90791 30.2162 9.21394 30.4846 9.43518C30.753 9.65642 31.0888 9.77969 31.4366 9.78469C31.647 9.78637 31.8555 9.74467 32.0491 9.66219C32.323 9.54265 32.5559 9.34557 32.7192 9.09524C32.8824 8.84492 32.9689 8.55229 32.9678 8.25344C32.9716 8.04777 32.9297 7.84383 32.8453 7.65625ZM67.1606 6.84469C66.9682 6.75853 66.7589 6.71667 66.5481 6.72219C66.1954 6.72286 65.8538 6.84527 65.5809 7.06873C65.308 7.29218 65.1207 7.60299 65.0504 7.94862C64.9802 8.29426 65.0315 8.65354 65.1956 8.96575C65.3596 9.27796 65.6265 9.52396 65.9509 9.66219C66.1398 9.74263 66.3429 9.78429 66.5481 9.78469C66.8487 9.78444 67.1425 9.69574 67.3931 9.52964C67.6436 9.36355 67.8397 9.1274 67.9569 8.85063C68.0413 8.66304 68.0831 8.4591 68.0794 8.25344C68.0927 7.94427 68.0121 7.63832 67.848 7.37591C67.684 7.1135 67.4444 6.90693 67.1606 6.78344V6.84469ZM38.5875 5.78813C38.4949 5.45691 38.2934 5.16652 38.0157 4.96375C37.7379 4.76097 37.3999 4.65761 37.0563 4.67031C36.9143 4.64689 36.7695 4.64689 36.6275 4.67031C36.2214 4.72514 35.8537 4.93905 35.6053 5.26498C35.3569 5.59091 35.2481 6.00217 35.303 6.40828C35.3578 6.81439 35.5717 7.18209 35.8976 7.43049C36.2236 7.67889 36.6348 7.78764 37.0409 7.73281C37.1778 7.75511 37.3175 7.75511 37.4544 7.73281C37.7856 7.64019 38.076 7.43876 38.2788 7.16098C38.4815 6.8832 38.5849 6.54525 38.5722 6.20156C38.5935 6.06483 38.5987 5.92606 38.5875 5.78813ZM61.25 4.71625C61.1177 4.7012 60.9842 4.7012 60.8519 4.71625C60.4458 4.66142 60.0345 4.77017 59.7086 5.01857C59.3826 5.26697 59.1687 5.63467 59.1139 6.04078C59.0591 6.44689 59.1678 6.85815 59.4162 7.18409C59.6646 7.51002 60.0323 7.72392 60.4384 7.77875C60.5754 7.80104 60.715 7.80104 60.8519 7.77875C61.1976 7.79059 61.5371 7.68504 61.8151 7.47928C62.0932 7.27352 62.2934 6.97969 62.3831 6.64563C62.4054 6.50871 62.4054 6.3691 62.3831 6.23219C62.3915 5.88907 62.2843 5.5531 62.0788 5.27819C61.8733 5.00329 61.5814 4.80538 61.25 4.71625ZM44.4062 4.71625C44.3577 4.34554 44.1751 4.00542 43.893 3.76002C43.611 3.51461 43.2489 3.38089 42.875 3.38406H42.6759C42.2739 3.44098 41.911 3.65523 41.6669 3.97971C41.4228 4.3042 41.3176 4.71233 41.3744 5.11437C41.4264 5.4823 41.6104 5.81876 41.8921 6.06105C42.1738 6.30333 42.5341 6.43491 42.9056 6.43125H43.1047C43.4754 6.38266 43.8155 6.20012 44.0609 5.91805C44.3063 5.63598 44.44 5.27387 44.4369 4.9C44.4651 4.86625 44.4907 4.83042 44.5134 4.79281L44.4062 4.71625ZM55.125 3.39938H54.9259C54.5198 3.37298 54.1199 3.50899 53.814 3.77749C53.5082 4.04599 53.3216 4.42498 53.2952 4.83109C53.2688 5.23721 53.4048 5.63717 53.6733 5.943C53.9418 6.24883 54.3208 6.43548 54.7269 6.46187H54.9259C55.2998 6.46505 55.6619 6.33132 55.944 6.08592C56.2261 5.84052 56.4086 5.5004 56.4572 5.12969C56.4648 5.05843 56.4648 4.98657 56.4572 4.91531C56.4387 4.55742 56.2952 4.21736 56.0518 3.95436C55.8083 3.69135 55.4804 3.52205 55.125 3.47594V3.39938ZM49 3.0625C48.6971 3.0625 48.4011 3.15231 48.1493 3.32056C47.8975 3.48882 47.7012 3.72797 47.5853 4.00777C47.4694 4.28757 47.4391 4.59545 47.4982 4.89248C47.5573 5.18952 47.7031 5.46236 47.9172 5.67651C48.1314 5.89066 48.4042 6.03649 48.7013 6.09558C48.9983 6.15466 49.3062 6.12434 49.586 6.00844C49.8658 5.89254 50.1049 5.69628 50.2732 5.44447C50.4414 5.19265 50.5312 4.8966 50.5312 4.59375C50.5312 4.18764 50.3699 3.79816 50.0828 3.51099C49.7956 3.22383 49.4061 3.0625 49 3.0625ZM49 91.875C48.6971 91.875 48.4011 91.9648 48.1493 92.1331C47.8975 92.3013 47.7012 92.5405 47.5853 92.8203C47.4694 93.1001 47.4391 93.408 47.4982 93.705C47.5573 94.002 47.7031 94.2749 47.9172 94.489C48.1314 94.7032 48.4042 94.849 48.7013 94.9081C48.9983 94.9672 49.3062 94.9368 49.586 94.8209C49.8658 94.705 50.1049 94.5088 50.2732 94.257C50.4414 94.0051 50.5312 93.7091 50.5312 93.4062C50.5312 93.0001 50.3699 92.6107 50.0828 92.3235C49.7956 92.0363 49.4061 91.875 49 91.875ZM56.5031 92.7937C56.4511 92.4258 56.2671 92.0894 55.9854 91.8471C55.7037 91.6048 55.3434 91.4732 54.9719 91.4769H54.7575C54.3557 91.5303 53.9915 91.7407 53.7446 92.0622C53.4978 92.3837 53.3885 92.7899 53.4406 93.1919C53.4892 93.5626 53.6718 93.9027 53.9538 94.1481C54.2359 94.3935 54.598 94.5272 54.9719 94.5241H55.1863C55.5542 94.4721 55.8906 94.288 56.1329 94.0063C56.3752 93.7246 56.5068 93.3644 56.5031 92.9928C56.5092 92.9266 56.5092 92.86 56.5031 92.7937ZM43.1966 91.4922H42.9822C42.6106 91.4885 42.2504 91.6201 41.9687 91.8624C41.687 92.1047 41.5029 92.4411 41.4509 92.8091C41.3941 93.2111 41.4994 93.6192 41.7434 93.9437C41.9875 94.2682 42.3505 94.4825 42.7525 94.5394H42.9669C43.3407 94.5425 43.7029 94.4088 43.9849 94.1634C44.267 93.918 44.4495 93.5779 44.4981 93.2072C44.5057 93.1411 44.5057 93.0743 44.4981 93.0081C44.4986 92.6415 44.3675 92.2868 44.1287 92.0086C43.8898 91.7304 43.5591 91.5472 43.1966 91.4922ZM62.3525 91.4003C62.2628 91.0663 62.0626 90.7724 61.7845 90.5667C61.5065 90.3609 61.167 90.2553 60.8213 90.2672C60.6843 90.2449 60.5447 90.2449 60.4078 90.2672C60.0017 90.322 59.634 90.5359 59.3856 90.8619C59.1372 91.1878 59.0285 91.599 59.0833 92.0052C59.1381 92.4113 59.352 92.779 59.6779 93.0274C60.0039 93.2758 60.4151 93.3845 60.8213 93.3297C60.9535 93.3456 61.0871 93.3456 61.2194 93.3297C61.5534 93.24 61.8473 93.0398 62.053 92.7617C62.2588 92.4837 62.3643 92.1441 62.3525 91.7984C62.3732 91.6665 62.3732 91.5322 62.3525 91.4003ZM37.5156 90.3438C37.3833 90.3287 37.2498 90.3287 37.1175 90.3438C36.7738 90.331 36.4359 90.4344 36.1581 90.6372C35.8803 90.84 35.6789 91.1303 35.5863 91.4616C35.5041 91.8552 35.5801 92.2654 35.7979 92.6035C36.0156 92.9416 36.3576 93.1804 36.75 93.2684C36.8869 93.2907 37.0265 93.2907 37.1634 93.2684C37.5071 93.2811 37.8451 93.1778 38.1229 92.975C38.4006 92.7722 38.6021 92.4818 38.6947 92.1506C38.7089 92.0183 38.7089 91.8848 38.6947 91.7525C38.677 91.4218 38.5525 91.1057 38.3399 90.8517C38.1273 90.5977 37.8381 90.4195 37.5156 90.3438ZM67.9569 89.2259C67.8373 88.952 67.6403 88.7191 67.3899 88.5558C67.1396 88.3926 66.847 88.3061 66.5481 88.3072C66.3425 88.3034 66.1385 88.3453 65.9509 88.4297C65.6265 88.5679 65.3596 88.8139 65.1956 89.1261C65.0315 89.4383 64.9802 89.7976 65.0504 90.1432C65.1207 90.4889 65.308 90.7997 65.5809 91.0231C65.8538 91.2466 66.1954 91.369 66.5481 91.3697C66.758 91.366 66.9655 91.3245 67.1606 91.2472C67.4345 91.1276 67.6675 90.9306 67.8307 90.6802C67.994 90.4299 68.0804 90.1373 68.0794 89.8384C68.0896 89.6174 68.0476 89.3971 67.9569 89.1953V89.2259ZM32.0338 88.4297C31.8413 88.3435 31.632 88.3017 31.4213 88.3072C31.0747 88.3155 30.7413 88.4411 30.4754 88.6636C30.2095 88.886 30.027 89.192 29.9577 89.5317C29.8883 89.8713 29.9363 90.2244 30.0936 90.5332C30.251 90.8421 30.5085 91.0884 30.8241 91.2319C31.0165 91.3196 31.2251 91.3665 31.4366 91.3697C31.7371 91.3694 32.031 91.2807 32.2815 91.1146C32.532 90.9485 32.7281 90.7124 32.8453 90.4356C32.9297 90.248 32.9716 90.0441 32.9678 89.8384C32.9737 89.5327 32.8878 89.2322 32.7213 88.9756C32.5549 88.7191 32.3154 88.5183 32.0338 88.3991V88.4297ZM9.60094 65.9509C9.4814 65.677 9.28432 65.4441 9.03399 65.2808C8.78367 65.1176 8.49104 65.0311 8.19219 65.0322C7.98652 65.0284 7.78258 65.0703 7.595 65.1547C7.27052 65.2929 7.0037 65.5389 6.83964 65.8511C6.67557 66.1633 6.62431 66.5226 6.69451 66.8683C6.76472 67.2139 6.95209 67.5247 7.22497 67.7482C7.49784 67.9716 7.83949 68.094 8.19219 68.0947C8.40221 68.0924 8.60994 68.0508 8.80469 67.9722C9.07859 67.8526 9.31153 67.6556 9.47479 67.4052C9.63804 67.1549 9.72448 66.8623 9.72344 66.5634C9.72512 66.353 9.68342 66.1445 9.60094 65.9509ZM7.65625 60.4844C7.56363 60.1532 7.3622 59.8628 7.08442 59.66C6.80664 59.4572 6.46869 59.3539 6.125 59.3666C5.98304 59.3431 5.83821 59.3431 5.69625 59.3666C5.29014 59.4214 4.92244 59.6353 4.67404 59.9612C4.42564 60.2872 4.31689 60.6984 4.37172 61.1045C4.42654 61.5106 4.64045 61.8783 4.96638 62.1267C5.29232 62.3751 5.70358 62.4839 6.10969 62.4291C6.2466 62.4514 6.38622 62.4514 6.52313 62.4291C6.85434 62.3364 7.14473 62.135 7.3475 61.8572C7.55028 61.5795 7.65365 61.2415 7.64094 60.8978C7.66832 60.7617 7.67349 60.6221 7.65625 60.4844ZM6.4925 54.8034C6.44391 54.4327 6.26137 54.0926 5.9793 53.8472C5.69723 53.6018 5.33512 53.4681 4.96125 53.4712H4.79281C4.59173 53.4843 4.39518 53.5369 4.21441 53.6259C4.03363 53.7149 3.87216 53.8387 3.73921 53.9901C3.47071 54.296 3.3347 54.6959 3.36109 55.102C3.38749 55.5081 3.57414 55.8871 3.87997 56.1556C4.1858 56.4241 4.58576 56.5601 4.99188 56.5337H5.20625C5.57417 56.4817 5.91064 56.2977 6.15292 56.016C6.39521 55.7343 6.52678 55.3741 6.52313 55.0025C6.52414 54.9358 6.51901 54.8692 6.50781 54.8034H6.4925ZM4.59375 47.4688C4.2909 47.4688 3.99485 47.5586 3.74303 47.7268C3.49122 47.8951 3.29496 48.1342 3.17906 48.414C3.06316 48.6938 3.03284 49.0017 3.09192 49.2987C3.15101 49.5958 3.29684 49.8686 3.51099 50.0828C3.72514 50.2969 3.99799 50.4427 4.29502 50.5018C4.59205 50.5609 4.89994 50.5306 5.17973 50.4147C5.45953 50.2988 5.69868 50.1025 5.86694 49.8507C6.03519 49.5989 6.125 49.3029 6.125 49C6.125 48.5939 5.96367 48.2044 5.67651 47.9172C5.38934 47.6301 4.99986 47.4688 4.59375 47.4688ZM5.19094 41.4816H4.97656C4.605 41.4779 4.24478 41.6095 3.96306 41.8518C3.68133 42.0941 3.49732 42.4305 3.44531 42.7984C3.41731 42.9986 3.42922 43.2024 3.48037 43.398C3.53151 43.5935 3.62087 43.7771 3.7433 43.9379C3.86572 44.0988 4.01879 44.2338 4.19367 44.3352C4.36854 44.4366 4.56176 44.5024 4.76219 44.5288H4.96125C5.33512 44.5319 5.69723 44.3982 5.9793 44.1528C6.26137 43.9074 6.44391 43.5673 6.4925 43.1966C6.49956 43.1253 6.49956 43.0535 6.4925 42.9822C6.48574 42.6208 6.35137 42.2735 6.11317 42.0017C5.87496 41.7298 5.54829 41.551 5.19094 41.4969V41.4816ZM6.59969 35.6322C6.46278 35.6099 6.32316 35.6099 6.18625 35.6322C5.78014 35.5794 5.36969 35.6901 5.04519 35.9399C4.72069 36.1898 4.50873 36.5583 4.45594 36.9644C4.40314 37.3705 4.51384 37.7809 4.76367 38.1054C5.01351 38.4299 5.38201 38.6419 5.78813 38.6947C5.92504 38.717 6.06465 38.717 6.20156 38.6947C6.54525 38.7074 6.8832 38.604 7.16098 38.4013C7.43876 38.1985 7.64019 37.9081 7.73281 37.5769C7.75511 37.44 7.75511 37.3004 7.73281 37.1634C7.74116 36.8203 7.63399 36.4844 7.4285 36.2094C7.22301 35.9345 6.93113 35.7366 6.59969 35.6475V35.6322ZM8.80469 30.0278C8.61111 29.9453 8.4026 29.9036 8.19219 29.9053C7.84451 29.9192 7.51195 30.0512 7.24927 30.2794C6.98659 30.5076 6.80946 30.8184 6.74706 31.1607C6.68466 31.503 6.74071 31.8564 6.90597 32.1626C7.07123 32.4688 7.33585 32.7096 7.65625 32.8453C7.84227 32.936 8.04649 32.9831 8.25344 32.9831C8.55401 32.9829 8.84786 32.8942 9.09837 32.7281C9.34888 32.562 9.54497 32.3258 9.66219 32.0491C9.7466 31.8615 9.78843 31.6575 9.78469 31.4519C9.78072 31.146 9.68525 30.8484 9.51058 30.5973C9.33591 30.3462 9.09005 30.1532 8.80469 30.0431V30.0278ZM90.4203 65.1394C90.2305 65.0622 90.028 65.0207 89.8231 65.0169C89.52 65.0141 89.2228 65.1014 88.9693 65.2677C88.7157 65.434 88.5173 65.6718 88.3991 65.9509C88.2401 66.3227 88.2346 66.7422 88.3837 67.118C88.5329 67.4938 88.8246 67.7954 89.1953 67.9569C89.3889 68.0394 89.5974 68.0811 89.8078 68.0794C90.1067 68.0804 90.3993 67.994 90.6496 67.8307C90.8999 67.6675 91.097 67.4345 91.2166 67.1606C91.3027 66.9682 91.3446 66.7589 91.3391 66.5481C91.3401 66.2493 91.2537 65.9566 91.0904 65.7063C90.9272 65.456 90.6942 65.2589 90.4203 65.1394ZM92.2119 59.3972C92.0796 59.3821 91.946 59.3821 91.8138 59.3972C91.4076 59.3424 90.9964 59.4511 90.6704 59.6995C90.3445 59.9479 90.1306 60.3156 90.0758 60.7217C90.021 61.1278 90.1297 61.5391 90.3781 61.865C90.6265 62.191 90.9942 62.4049 91.4003 62.4597C91.532 62.4829 91.6667 62.4829 91.7984 62.4597C92.1441 62.4715 92.4837 62.366 92.7617 62.1602C93.0398 61.9545 93.24 61.6606 93.3297 61.3266C93.3447 61.1943 93.3447 61.0607 93.3297 60.9284C93.3424 60.5848 93.239 60.2468 93.0363 59.969C92.8335 59.6912 92.5431 59.4898 92.2119 59.3972ZM93.2072 53.4712H93.0081C92.602 53.4428 92.2012 53.5769 91.894 53.8439C91.5867 54.111 91.3981 54.4892 91.3697 54.8953C91.3413 55.3014 91.4753 55.7022 91.7424 56.0095C92.0095 56.3167 92.3876 56.5053 92.7937 56.5337H93.0081C93.382 56.5369 93.7441 56.4032 94.0262 56.1578C94.3082 55.9124 94.4908 55.5723 94.5394 55.2016C94.5469 55.1405 94.5469 55.0788 94.5394 55.0178C94.5463 54.6413 94.4143 54.2755 94.1686 53.9902C93.9228 53.7049 93.5806 53.5201 93.2072 53.4712ZM93.4062 47.4688C93.1034 47.4688 92.8074 47.5586 92.5555 47.7268C92.3037 47.8951 92.1075 48.1342 91.9916 48.414C91.8757 48.6938 91.8453 49.0017 91.9044 49.2987C91.9635 49.5958 92.1093 49.8686 92.3235 50.0828C92.5376 50.2969 92.8105 50.4427 93.1075 50.5018C93.4045 50.5609 93.7124 50.5306 93.9922 50.4147C94.272 50.2988 94.5112 50.1025 94.6794 49.8507C94.8477 49.5989 94.9375 49.3029 94.9375 49C94.9375 48.5939 94.7762 48.2044 94.489 47.9172C94.2018 47.6301 93.8124 47.4688 93.4062 47.4688ZM94.5241 42.875C94.4721 42.5071 94.288 42.1706 94.0063 41.9283C93.7246 41.686 93.3644 41.5545 92.9928 41.5581H92.7937C92.3876 41.5866 92.0095 41.7751 91.7424 42.0824C91.4753 42.3897 91.3413 42.7904 91.3697 43.1966C91.3981 43.6027 91.5867 43.9809 91.894 44.2479C92.2012 44.515 92.602 44.6491 93.0081 44.6206H93.2072C93.5779 44.572 93.918 44.3895 94.1634 44.1074C94.4088 43.8254 94.5425 43.4632 94.5394 43.0894C94.5524 42.9872 94.5472 42.8835 94.5241 42.7831V42.875ZM93.2684 36.75C93.1758 36.4188 92.9744 36.1284 92.6966 35.9256C92.4188 35.7228 92.0809 35.6195 91.7372 35.6322C91.6003 35.6099 91.4607 35.6099 91.3237 35.6322C90.9176 35.687 90.5499 35.9009 90.3015 36.2269C90.0531 36.5528 89.9444 36.964 89.9992 37.3702C90.054 37.7763 90.268 38.144 90.5939 38.3924C90.9198 38.6408 91.3311 38.7495 91.7372 38.6947C91.8746 38.7097 92.0132 38.7097 92.1506 38.6947C92.4818 38.6021 92.7722 38.4006 92.975 38.1229C93.1778 37.8451 93.2811 37.5071 93.2684 37.1634C93.2907 37.0265 93.2907 36.8869 93.2684 36.75ZM91.2013 30.87C91.0828 30.5985 90.888 30.3672 90.6407 30.2041C90.3934 30.041 90.1041 29.9532 89.8078 29.9513C89.5974 29.9496 89.3889 29.9913 89.1953 30.0737C88.8696 30.2125 88.602 30.4598 88.4381 30.7736C88.2742 31.0874 88.2241 31.4483 88.2963 31.7949C88.3685 32.1414 88.5585 32.4523 88.8341 32.6745C89.1097 32.8968 89.4538 33.0166 89.8078 33.0138C90.0127 33.0099 90.2151 32.9684 90.405 32.8912C90.6789 32.7717 90.9118 32.5746 91.0751 32.3243C91.2383 32.074 91.3248 31.7814 91.3237 31.4825C91.332 31.2567 91.2902 31.0318 91.2013 30.8241V30.87Z" fill="#B4CDE1"/>
<path d="M78.0938 24.5C77.6876 24.5 77.2982 24.3387 77.011 24.0515C76.7238 23.7643 76.5625 23.3749 76.5625 22.9688V16.8438C76.5625 15.6254 77.0465 14.457 77.908 13.5955C78.7695 12.734 79.9379 12.25 81.1562 12.25C81.5624 12.25 81.9518 12.4113 82.239 12.6985C82.5262 12.9857 82.6875 13.3751 82.6875 13.7812C82.6875 14.1874 82.5262 14.5768 82.239 14.864C81.9518 15.1512 81.5624 15.3125 81.1562 15.3125C80.7501 15.3125 80.3607 15.4738 80.0735 15.761C79.7863 16.0482 79.625 16.4376 79.625 16.8438V22.9688C79.625 23.3749 79.4637 23.7643 79.1765 24.0515C78.8893 24.3387 78.4999 24.5 78.0938 24.5Z" fill="#F0F7FC"/>
<path d="M81.1562 19.9062H78.0938C77.6876 19.9062 77.2982 19.7449 77.011 19.4578C76.7238 19.1706 76.5625 18.7811 76.5625 18.375C76.5625 17.9689 76.7238 17.5794 77.011 17.2922C77.2982 17.0051 77.6876 16.8438 78.0938 16.8438H81.1562C81.5624 16.8438 81.9518 17.0051 82.239 17.2922C82.5262 17.5794 82.6875 17.9689 82.6875 18.375C82.6875 18.7811 82.5262 19.1706 82.239 19.4578C81.9518 19.7449 81.5624 19.9062 81.1562 19.9062ZM81.1562 85.75H79.625C78.8128 85.75 78.0338 85.4273 77.4595 84.853C76.8852 84.2787 76.5625 83.4997 76.5625 82.6875V75.0312C76.5625 74.6251 76.7238 74.2357 77.011 73.9485C77.2982 73.6613 77.6876 73.5 78.0938 73.5C78.4999 73.5 78.8893 73.6613 79.1765 73.9485C79.4637 74.2357 79.625 74.6251 79.625 75.0312V82.6875H81.1562C81.5624 82.6875 81.9518 82.8488 82.239 83.136C82.5262 83.4232 82.6875 83.8126 82.6875 84.2188C82.6875 84.6249 82.5262 85.0143 82.239 85.3015C81.9518 85.5887 81.5624 85.75 81.1562 85.75Z" fill="#F0F7FC"/>
<path d="M81.1562 79.625H76.5625C76.1564 79.625 75.7669 79.4637 75.4797 79.1765C75.1926 78.8893 75.0312 78.4999 75.0312 78.0938C75.0312 77.6876 75.1926 77.2982 75.4797 77.011C75.7669 76.7238 76.1564 76.5625 76.5625 76.5625H81.1562C81.5624 76.5625 81.9518 76.7238 82.239 77.011C82.5262 77.2982 82.6875 77.6876 82.6875 78.0938C82.6875 78.4999 82.5262 78.8893 82.239 79.1765C81.9518 79.4637 81.5624 79.625 81.1562 79.625ZM19.9062 85.75H16.8438C15.6254 85.75 14.457 85.266 13.5955 84.4045C12.734 83.543 12.25 82.3746 12.25 81.1562V78.0938C12.25 76.8754 12.734 75.707 13.5955 74.8455C14.457 73.984 15.6254 73.5 16.8438 73.5H19.9062C21.1246 73.5 22.293 73.984 23.1545 74.8455C24.016 75.707 24.5 76.8754 24.5 78.0938V81.1562C24.5 82.3746 24.016 83.543 23.1545 84.4045C22.293 85.266 21.1246 85.75 19.9062 85.75ZM16.8438 76.5625C16.4376 76.5625 16.0482 76.7238 15.761 77.011C15.4738 77.2982 15.3125 77.6876 15.3125 78.0938V81.1562C15.3125 81.5624 15.4738 81.9518 15.761 82.239C16.0482 82.5262 16.4376 82.6875 16.8438 82.6875H19.9062C20.3124 82.6875 20.7018 82.5262 20.989 82.239C21.2762 81.9518 21.4375 81.5624 21.4375 81.1562V78.0938C21.4375 77.6876 21.2762 77.2982 20.989 77.011C20.7018 76.7238 20.3124 76.5625 19.9062 76.5625H16.8438Z" fill="#F0F7FC"/>
<path d="M18.375 81.1562C19.2207 81.1562 19.9062 80.4707 19.9062 79.625C19.9062 78.7793 19.2207 78.0938 18.375 78.0938C17.5293 78.0938 16.8438 78.7793 16.8438 79.625C16.8438 80.4707 17.5293 81.1562 18.375 81.1562Z" fill="#F0F7FC"/>
<path d="M19.1406 21.4375H16.8438C16.4376 21.4375 16.0482 21.2762 15.761 20.989C15.4738 20.7018 15.3125 20.3124 15.3125 19.9062C15.3125 19.5001 15.4738 19.1107 15.761 18.8235C16.0482 18.5363 16.4376 18.375 16.8438 18.375H19.1406C19.3437 18.375 19.5384 18.2943 19.682 18.1508C19.8256 18.0072 19.9062 17.8124 19.9062 17.6094C19.9062 17.4063 19.8256 17.2116 19.682 17.068C19.5384 16.9244 19.3437 16.8438 19.1406 16.8438H15.3125C14.9064 16.8438 14.5169 16.6824 14.2297 16.3953C13.9426 16.1081 13.7812 15.7186 13.7812 15.3125C13.7812 14.9064 13.9426 14.5169 14.2297 14.2297C14.5169 13.9426 14.9064 13.7812 15.3125 13.7812H19.1406C20.1559 13.7813 21.1296 14.1846 21.8475 14.9025C22.5654 15.6204 22.9688 16.5941 22.9688 17.6094C22.9688 18.6247 22.5654 19.5984 21.8475 20.3163C21.1296 21.0342 20.1559 21.4375 19.1406 21.4375Z" fill="#F0F7FC"/>
<path d="M16.8438 24.5C16.4376 24.5 16.0482 24.3387 15.761 24.0515C15.4738 23.7643 15.3125 23.3749 15.3125 22.9688V18.375C15.3125 17.9689 15.4738 17.5794 15.761 17.2922C16.0482 17.0051 16.4376 16.8438 16.8438 16.8438C17.2499 16.8438 17.6393 17.0051 17.9265 17.2922C18.2137 17.5794 18.375 17.9689 18.375 18.375V22.9688C18.375 23.3749 18.2137 23.7643 17.9265 24.0515C17.6393 24.3387 17.2499 24.5 16.8438 24.5Z" fill="#F0F7FC"/>
<path d="M16.8438 53.5938C19.3808 53.5938 21.4375 51.5371 21.4375 49C21.4375 46.4629 19.3808 44.4062 16.8438 44.4062C14.3067 44.4062 12.25 46.4629 12.25 49C12.25 51.5371 14.3067 53.5938 16.8438 53.5938Z" fill="url(#paint1_linear_5_314)"/>
<path d="M81.1562 53.5938C83.6933 53.5938 85.75 51.5371 85.75 49C85.75 46.4629 83.6933 44.4062 81.1562 44.4062C78.6192 44.4062 76.5625 46.4629 76.5625 49C76.5625 51.5371 78.6192 53.5938 81.1562 53.5938Z" fill="url(#paint2_linear_5_314)"/>
<path d="M49 21.4375C51.5371 21.4375 53.5938 19.3808 53.5938 16.8438C53.5938 14.3067 51.5371 12.25 49 12.25C46.4629 12.25 44.4062 14.3067 44.4062 16.8438C44.4062 19.3808 46.4629 21.4375 49 21.4375Z" fill="url(#paint3_linear_5_314)"/>
<path d="M49 85.75C51.5371 85.75 53.5938 83.6933 53.5938 81.1562C53.5938 78.6192 51.5371 76.5625 49 76.5625C46.4629 76.5625 44.4062 78.6192 44.4062 81.1562C44.4062 83.6933 46.4629 85.75 49 85.75Z" fill="url(#paint4_linear_5_314)"/>
<path d="M42.875 42.875H45.9375V52.0625H42.875C41.6567 52.0625 40.4882 51.5785 39.6267 50.717C38.7652 49.8555 38.2812 48.6871 38.2812 47.4688C38.2812 46.2504 38.7652 45.082 39.6267 44.2205C40.4882 43.359 41.6567 42.875 42.875 42.875Z" fill="#D7E9F7"/>
<defs>
<linearGradient id="paint0_linear_5_314" x1="45.9375" y1="47.469" x2="58.1875" y2="47.469" gradientUnits="userSpaceOnUse">
<stop stop-color="#D3E6F5"/>
<stop offset="1" stop-color="#F0F7FC"/>
</linearGradient>
<linearGradient id="paint1_linear_5_314" x1="12.25" y1="49" x2="21.4375" y2="49" gradientUnits="userSpaceOnUse">
<stop stop-color="#D3E6F5"/>
<stop offset="1" stop-color="#F0F7FC"/>
</linearGradient>
<linearGradient id="paint2_linear_5_314" x1="76.5625" y1="49" x2="85.75" y2="49" gradientUnits="userSpaceOnUse">
<stop stop-color="#D3E6F5"/>
<stop offset="1" stop-color="#F0F7FC"/>
</linearGradient>
<linearGradient id="paint3_linear_5_314" x1="44.4062" y1="16.8438" x2="53.5938" y2="16.8438" gradientUnits="userSpaceOnUse">
<stop stop-color="#D3E6F5"/>
<stop offset="1" stop-color="#F0F7FC"/>
</linearGradient>
<linearGradient id="paint4_linear_5_314" x1="44.4062" y1="81.1562" x2="53.5938" y2="81.1562" gradientUnits="userSpaceOnUse">
<stop stop-color="#D3E6F5"/>
<stop offset="1" stop-color="#F0F7FC"/>
</linearGradient>
</defs>
</svg>
