<svg width="98" height="98" viewBox="0 0 98 98" fill="none" xmlns="http://www.w3.org/2000/svg">
<path d="M59.8733 67.4L52.5133 74.76H78.2733V83.96C78.2733 86.888 77.1102 89.6961 75.0398 91.7665C72.9694 93.8369 70.1613 95 67.2333 95H30.4333C27.5053 95 24.6973 93.8369 22.6269 91.7665C20.5564 89.6961 19.3933 86.888 19.3933 83.96V52.68H32.2733C34.2253 52.68 36.0973 51.9046 37.4776 50.5243C38.8579 49.144 39.6333 47.272 39.6333 45.32V30.6L46.9933 23.24H19.3933V14.04C19.3933 11.112 20.5564 8.30394 22.6269 6.23354C24.6973 4.16314 27.5053 3 30.4333 3H67.2333C70.1613 3 72.9694 4.16314 75.0398 6.23354C77.1102 8.30394 78.2733 11.112 78.2733 14.04V47.16H67.2333C65.2813 47.16 63.4093 47.9354 62.029 49.3157C60.6487 50.696 59.8733 52.568 59.8733 54.52V67.4Z" fill="#60C1FE"/>
<path d="M59.8732 67.3994L52.5132 74.7594H70.9132V83.9594C70.9132 84.9354 70.5255 85.8714 69.8353 86.5615C69.1452 87.2517 68.2092 87.6394 67.2332 87.6394H30.4332C29.4572 87.6394 28.5212 87.2517 27.831 86.5615C27.1409 85.8714 26.7532 84.9354 26.7532 83.9594V52.6794H32.2732C34.2252 52.6794 36.0972 51.9039 37.4775 50.5237C38.8577 49.1434 39.6332 47.2714 39.6332 45.3194V30.5994L46.9932 23.2394H26.7532V14.0394C26.7532 13.0634 27.1409 12.1274 27.831 11.4372C28.5212 10.7471 29.4572 10.3594 30.4332 10.3594H37.7932L38.6396 12.0154C38.9454 12.6223 39.4133 13.1326 39.9914 13.4899C40.5695 13.8471 41.2352 14.0373 41.9148 14.0394H55.7516C56.4311 14.0373 57.0969 13.8471 57.675 13.4899C58.2531 13.1326 58.721 12.6223 59.0268 12.0154L59.8732 10.3594H67.2332C68.2092 10.3594 69.1452 10.7471 69.8353 11.4372C70.5255 12.1274 70.9132 13.0634 70.9132 14.0394V47.1594H67.2332C65.2812 47.1594 63.4091 47.9348 62.0289 49.3151C60.6486 50.6953 59.8732 52.5674 59.8732 54.5194V67.3994Z" fill="#F0F7FC"/>
<path d="M46.9933 23.2402L39.6333 30.6002V45.3202C39.6333 47.2722 38.8578 49.1443 37.4776 50.5245C36.0973 51.9048 34.2252 52.6802 32.2733 52.6802H10.1933C8.24126 52.6802 6.36921 51.9048 4.98895 50.5245C3.60868 49.1443 2.83325 47.2722 2.83325 45.3202V30.6002C2.83325 28.6482 3.60868 26.7762 4.98895 25.3959C6.36921 24.0157 8.24126 23.2402 10.1933 23.2402H46.9933Z" fill="#9200FE"/>
<path d="M94.8332 54.5202V67.4002C94.8332 69.3521 94.0578 71.2242 92.6775 72.6045C91.2972 73.9847 89.4252 74.7602 87.4732 74.7602H52.5132L59.8732 67.4002V54.5202C59.8732 52.5682 60.6486 50.6961 62.0289 49.3159C63.4091 47.9356 65.2812 47.1602 67.2332 47.1602H87.4732C89.4252 47.1602 91.2972 47.9356 92.6775 49.3159C94.0578 50.6961 94.8332 52.5682 94.8332 54.5202Z" fill="#6CDA9C"/>
<path d="M26.9924 41.9529L21.0124 46.7001L15.0324 41.9529C13.9044 41.0697 12.9816 39.9522 12.3276 38.6777C12.0214 38.1102 11.8454 37.4816 11.8124 36.8377C11.8193 35.7888 12.1593 34.7693 12.7833 33.9262C13.4072 33.083 14.2829 32.4599 15.2839 32.1467C16.2849 31.8335 17.3595 31.8464 18.3528 32.1835C19.346 32.5207 20.2064 33.1646 20.81 34.0225C20.8878 34.1131 20.9556 34.2118 21.0124 34.3169C21.0693 34.2072 21.1439 34.1078 21.2332 34.0225C21.6853 33.3732 22.2881 32.8431 22.9899 32.4778C23.6917 32.1125 24.4716 31.9228 25.2628 31.9249C26.5691 31.9248 27.8225 32.4412 28.7497 33.3615C29.6769 34.2818 30.2027 35.5313 30.2124 36.8377C30.1794 37.4816 30.0034 38.1102 29.6972 38.6777C29.0492 39.9562 28.1254 41.0749 26.9924 41.9529Z" fill="url(#paint0_linear_5_385)"/>
<path d="M85.6332 58.1995H69.0732C68.5852 58.1995 68.1171 58.0057 67.7721 57.6606C67.427 57.3155 67.2332 56.8475 67.2332 56.3595C67.2332 55.8715 67.427 55.4035 67.7721 55.0585C68.1171 54.7134 68.5852 54.5195 69.0732 54.5195H85.6332C86.1212 54.5195 86.5892 54.7134 86.9342 55.0585C87.2793 55.4035 87.4732 55.8715 87.4732 56.3595C87.4732 56.8475 87.2793 57.3155 86.9342 57.6606C86.5892 58.0057 86.1212 58.1995 85.6332 58.1995Z" fill="url(#paint1_linear_5_385)"/>
<path d="M85.6332 67.4007H69.0732C68.5852 67.4007 68.1171 67.2068 67.7721 66.8618C67.427 66.5167 67.2332 66.0487 67.2332 65.5607C67.2332 65.0727 67.427 64.6047 67.7721 64.2596C68.1171 63.9146 68.5852 63.7207 69.0732 63.7207H85.6332C86.1212 63.7207 86.5892 63.9146 86.9342 64.2596C87.2793 64.6047 87.4732 65.0727 87.4732 65.5607C87.4732 66.0487 87.2793 66.5167 86.9342 66.8618C86.5892 67.2068 86.1212 67.4007 85.6332 67.4007Z" fill="url(#paint2_linear_5_385)"/>
<defs>
<linearGradient id="paint0_linear_5_385" x1="11.8124" y1="39.3401" x2="30.2124" y2="39.3401" gradientUnits="userSpaceOnUse">
<stop stop-color="#D3E6F5"/>
<stop offset="1" stop-color="#F0F7FC"/>
</linearGradient>
<linearGradient id="paint1_linear_5_385" x1="67.2332" y1="56.3595" x2="87.4732" y2="56.3595" gradientUnits="userSpaceOnUse">
<stop stop-color="#D3E6F5"/>
<stop offset="1" stop-color="#F0F7FC"/>
</linearGradient>
<linearGradient id="paint2_linear_5_385" x1="67.2332" y1="65.5607" x2="87.4732" y2="65.5607" gradientUnits="userSpaceOnUse">
<stop stop-color="#D3E6F5"/>
<stop offset="1" stop-color="#F0F7FC"/>
</linearGradient>
</defs>
</svg>
